<svg width="145" height="145" viewBox="0 0 145 145" fill="none" xmlns="http://www.w3.org/2000/svg">
<g clip-path="url(#clip0_107_159)">
<path fill-rule="evenodd" clip-rule="evenodd" d="M73.0374 19.7839C122.969 19.7839 103.509 102.528 73.0374 102.528C44.2579 102.528 23.1062 19.7839 73.0374 19.7839Z" fill="#FFE8BE"/>
<path d="M72.5 145C112.541 145 145 112.541 145 72.5C145 32.4594 112.541 0 72.5 0C32.4594 0 0 32.4594 0 72.5C0 112.541 32.4594 145 72.5 145Z" fill="#A9CF54"/>
<path fill-rule="evenodd" clip-rule="evenodd" d="M39.0584 58.9009C39.0584 58.9009 42.3291 102.589 34.4128 114.379C26.4964 126.169 73.1498 113.933 73.1498 113.933L73.1639 32.1345L39.0584 58.9009Z" fill="#302E33"/>
<path fill-rule="evenodd" clip-rule="evenodd" d="M107.237 58.9009C107.237 58.9009 103.966 102.589 111.885 114.379C119.803 126.169 73.1476 113.933 73.1476 113.933L73.1335 32.1345L107.237 58.9009Z" fill="#302E33"/>
<path fill-rule="evenodd" clip-rule="evenodd" d="M123.876 123.651C122.45 120.221 122.717 116.805 111.289 111.481C105.909 110.209 92.0256 108.386 89.4025 103.504C88.0721 101.036 88.3936 97.556 88.3936 91.0873L58.0562 90.7542C58.0562 97.2698 58.3119 100.745 56.8267 103.185C54.0347 107.776 35.8627 111.125 30.2246 112.626C20.6213 116.894 21.7194 119.489 20.4524 122.964C27.1539 129.877 35.1655 135.386 44.0194 139.169C52.8733 142.952 62.3921 144.934 72.0202 144.998C81.6483 145.062 91.1926 143.207 100.096 139.542C108.999 135.877 117.084 130.475 123.876 123.651Z" fill="#F9DCA4"/>
<path opacity="0.11" fill-rule="evenodd" clip-rule="evenodd" d="M88.4007 90.984L88.3655 96.852C88.1497 99.2802 88.5956 101.722 89.6559 103.917C79.2103 111.941 59.6376 110.005 57.4744 89.9868L88.4007 90.984Z" fill="black"/>
<path fill-rule="evenodd" clip-rule="evenodd" d="M44.8374 56.7401C37.8972 59.7668 43.8004 74.1261 48.1692 74.0627C46.3563 68.446 45.2374 62.6286 44.8374 56.7401ZM102.08 56.7378C109.025 59.7692 103.119 74.1261 98.7502 74.0627C100.563 68.4452 101.681 62.627 102.08 56.7378Z" fill="#F9DCA4"/>
<path fill-rule="evenodd" clip-rule="evenodd" d="M73.002 20.3328C93.4662 20.3328 102.042 34.8797 102.567 51.6955C103.288 74.7125 89.2523 101.976 73.0043 101.976C57.6127 101.976 43.1925 73.7786 44.0677 50.527C44.6777 34.2133 53.0164 20.3328 73.002 20.3328Z" fill="#FFE8BE"/>
<path fill-rule="evenodd" clip-rule="evenodd" d="M73.164 32.137C71.8055 37.7939 65.4213 55.9916 39.0585 58.901C36.3133 13.5662 70.8154 14.6784 73.164 14.8074C75.515 14.6784 110.017 13.5639 107.269 58.901C80.9091 55.9916 74.5225 37.7939 73.164 32.137Z" fill="#464449"/>
<path fill-rule="evenodd" clip-rule="evenodd" d="M123.876 123.651C88.9872 134.392 43.7087 127.91 30.2246 112.626C20.6213 116.894 21.7194 119.489 20.4524 122.964C27.1539 129.877 35.1655 135.386 44.0194 139.169C52.8733 142.952 62.3921 144.934 72.0202 144.998C81.6483 145.062 91.1926 143.207 100.096 139.542C108.999 135.877 117.084 130.475 123.876 123.651Z" fill="#E9573E"/>
<path fill-rule="evenodd" clip-rule="evenodd" d="M100.414 109.144L102.926 109.738L102.917 128.785H100.414V109.144Z" fill="#E9573E"/>
<path fill-rule="evenodd" clip-rule="evenodd" d="M55.9212 104.222C55.9259 104.252 57.9812 114.665 73.6215 114.665C89.2032 114.665 90.1534 104.562 90.1557 104.534L90.5968 104.963C90.5968 104.991 89.2735 115.995 73.6215 115.995C57.6739 115.995 55.4238 104.663 55.4167 104.628L55.9212 104.222Z" fill="#464449"/>
<path d="M73.4947 120.491C75.4553 120.491 77.0447 118.485 77.0447 116.012C77.0447 113.538 75.4553 111.533 73.4947 111.533C71.5342 111.533 69.9448 113.538 69.9448 116.012C69.9448 118.485 71.5342 120.491 73.4947 120.491Z" fill="#464449"/>
</g>
<defs>
<clipPath id="clip0_107_159">
<rect width="145" height="145" fill="white"/>
</clipPath>
</defs>
</svg>
