<svg width="76" height="96" viewBox="0 0 76 96" fill="none" xmlns="http://www.w3.org/2000/svg">
<path d="M42.37 62.4116C42.2751 62.1167 42.1305 61.8405 41.9425 61.5954L41.3725 60.8752C40.9309 60.4251 40.4056 60.0679 39.8267 59.8241C39.2479 59.5804 38.6271 59.4549 38 59.4549C37.3729 59.4549 36.7521 59.5804 36.1733 59.8241C35.5944 60.0679 35.0691 60.4251 34.6275 60.8752C34.4011 61.0833 34.2087 61.3264 34.0575 61.5954C33.8695 61.8405 33.7249 62.1167 33.63 62.4116C33.4925 62.7004 33.3965 63.0076 33.345 63.3239C33.3217 63.6276 33.3217 63.9326 33.345 64.2362C33.3285 64.8816 33.4585 65.5221 33.725 66.1088C34.2084 67.2765 35.1283 68.204 36.2847 68.6896C37.4411 69.1751 38.7404 69.1794 39.9 68.7016C40.4773 68.4406 41.0071 68.0835 41.4675 67.6453C41.8948 67.2028 42.2335 66.6811 42.465 66.1088C42.7145 65.5167 42.8438 64.8798 42.845 64.2362C42.8683 63.9326 42.8683 63.6276 42.845 63.3239C42.734 62.9969 42.5738 62.6892 42.37 62.4116ZM38 25.7282C36.7402 25.7282 35.532 26.234 34.6412 27.1345C33.7505 28.0349 33.25 29.2562 33.25 30.5297V44.9342C33.25 46.2076 33.7505 47.4289 34.6412 48.3293C35.532 49.2298 36.7402 49.7357 38 49.7357C39.2598 49.7357 40.468 49.2298 41.3588 48.3293C42.2495 47.4289 42.75 46.2076 42.75 44.9342V30.5297C42.75 29.2562 42.2495 28.0349 41.3588 27.1345C40.468 26.234 39.2598 25.7282 38 25.7282ZM74.2425 7.91458C73.6906 7.46335 73.0458 7.14285 72.3553 6.97667C71.6648 6.81049 70.9463 6.80284 70.2525 6.95428C65.1768 8.02955 59.9371 8.04325 54.856 6.99454C49.7749 5.94583 44.9599 3.8569 40.7075 0.856374C39.9124 0.298788 38.9677 0 38 0C37.0323 0 36.0876 0.298788 35.2925 0.856374C31.0401 3.8569 26.2251 5.94583 21.144 6.99454C16.0629 8.04325 10.8232 8.02955 5.74752 6.95428C5.05373 6.80284 4.33518 6.81049 3.6447 6.97667C2.95422 7.14285 2.30936 7.46335 1.75753 7.91458C1.20643 8.36649 0.762501 8.93748 0.458366 9.58558C0.15423 10.2337 -0.0023854 10.9424 2.7462e-05 11.6598V47.431C-0.00419546 54.3151 1.6187 61.1007 4.73356 67.2225C7.84843 73.3444 12.3651 78.6255 17.9075 82.626L35.245 95.1099C36.0495 95.6889 37.0125 96 38 96C38.9875 96 39.9505 95.6889 40.755 95.1099L58.0925 82.626C63.6349 78.6255 68.1516 73.3444 71.2664 67.2225C74.3813 61.1007 76.0042 54.3151 76 47.431V11.6598C76.0024 10.9424 75.8458 10.2337 75.5416 9.58558C75.2375 8.93748 74.7936 8.36649 74.2425 7.91458ZM66.5 47.431C66.5036 52.7835 65.2426 58.0594 62.8218 62.8199C60.4011 67.5803 56.8906 71.6874 52.5825 74.7995L38 85.3148L23.4175 74.7995C19.1094 71.6874 15.5989 67.5803 13.1782 62.8199C10.7574 58.0594 9.49638 52.7835 9.50002 47.431V17.1815C19.458 18.043 29.4312 15.7075 38 10.5074C46.5688 15.7075 56.542 18.043 66.5 17.1815V47.431Z" fill="white"/>
</svg>
