<svg width="94" height="94" viewBox="0 0 94 94" fill="none" xmlns="http://www.w3.org/2000/svg">
<g clip-path="url(#clip0_107_447)">
<path fill-rule="evenodd" clip-rule="evenodd" d="M47.3481 12.8254C79.7173 12.8254 67.1018 66.4663 47.3481 66.4663C28.6911 66.4663 14.9789 12.8254 47.3481 12.8254Z" fill="#FFE8BE"/>
<path d="M47 94C72.9574 94 94 72.9574 94 47C94 21.0426 72.9574 0 47 0C21.0426 0 0 21.0426 0 47C0 72.9574 21.0426 94 47 94Z" fill="#A9CF54"/>
<path fill-rule="evenodd" clip-rule="evenodd" d="M25.3206 38.184C25.3206 38.184 27.441 66.5057 22.309 74.1489C17.177 81.7921 47.4213 73.8599 47.4213 73.8599L47.4304 20.832L25.3206 38.184Z" fill="#302E33"/>
<path fill-rule="evenodd" clip-rule="evenodd" d="M69.5189 38.184C69.5189 38.184 67.3986 66.5057 72.5321 74.1489C77.6656 81.7921 47.4198 73.8599 47.4198 73.8599L47.4106 20.832L69.5189 38.184Z" fill="#302E33"/>
<path fill-rule="evenodd" clip-rule="evenodd" d="M80.306 80.1602C79.3812 77.9364 79.5546 75.7218 72.1457 72.2706C68.6579 71.4462 59.658 70.2643 57.9575 67.099C57.095 65.4989 57.3034 63.2432 57.3034 59.0497L37.6364 58.8337C37.6364 63.0577 37.8022 65.3103 36.8394 66.8922C35.0294 69.8689 23.249 72.0394 19.5939 73.0128C13.3683 75.7796 14.0801 77.4619 13.2588 79.7145C17.6032 84.1962 22.7969 87.7676 28.5367 90.2201C34.2765 92.6726 40.4473 93.957 46.6889 93.9985C52.9306 94.04 59.118 92.8377 64.8898 90.4617C70.6617 88.0857 75.9024 84.5837 80.306 80.1602Z" fill="#F9DCA4"/>
<path opacity="0.11" fill-rule="evenodd" clip-rule="evenodd" d="M57.308 58.9826L57.2852 62.7867C57.1453 64.3609 57.4344 65.9435 58.1218 67.3666C51.3502 72.5685 38.6617 71.3137 37.2593 58.3362L57.308 58.9826Z" fill="black"/>
<path fill-rule="evenodd" clip-rule="evenodd" d="M29.0671 36.7833C24.5679 38.7454 28.3948 48.0541 31.227 48.0131C30.0518 44.3719 29.3265 40.6006 29.0671 36.7833ZM66.1758 36.7817C70.6781 38.7469 66.8497 48.0541 64.0175 48.0131C65.1925 44.3714 65.9173 40.5995 66.1758 36.7817Z" fill="#F9DCA4"/>
<path fill-rule="evenodd" clip-rule="evenodd" d="M47.3254 13.1814C60.5919 13.1814 66.1513 22.6118 66.492 33.5131C66.959 48.4344 57.8601 66.1089 47.327 66.1089C37.349 66.1089 28.0007 47.8291 28.568 32.7556C28.9635 22.1798 34.3693 13.1814 47.3254 13.1814Z" fill="#FFE8BE"/>
<path fill-rule="evenodd" clip-rule="evenodd" d="M47.4302 20.8335C46.5496 24.5008 42.4108 36.2979 25.3205 38.184C23.5409 8.79454 45.9077 9.51551 47.4302 9.59917C48.9543 9.51551 71.3212 8.79302 69.54 38.184C52.4512 36.2979 48.3109 24.5008 47.4302 20.8335Z" fill="#464449"/>
<path fill-rule="evenodd" clip-rule="evenodd" d="M80.306 80.16C57.6882 87.1233 28.3353 82.9207 19.5939 73.0127C13.3683 75.7795 14.0801 77.4617 13.2588 79.7144C17.6032 84.1961 22.7969 87.7674 28.5367 90.2199C34.2765 92.6724 40.4473 93.9569 46.6889 93.9984C52.9306 94.0399 59.118 92.8375 64.8898 90.4616C70.6617 88.0856 75.9024 84.5836 80.306 80.16Z" fill="#E9573E"/>
<path fill-rule="evenodd" clip-rule="evenodd" d="M65.0957 70.7556L66.7247 71.1404L66.7186 83.4882H65.0957V70.7556Z" fill="#E9573E"/>
<path fill-rule="evenodd" clip-rule="evenodd" d="M36.2523 67.5645C36.2554 67.5842 37.5878 74.3346 47.727 74.3346C57.8282 74.3346 58.4442 67.785 58.4457 67.7668L58.7317 68.0451C58.7317 68.0634 57.8738 75.197 47.727 75.197C37.3885 75.197 35.9299 67.8504 35.9253 67.8276L36.2523 67.5645Z" fill="#464449"/>
<path d="M47.6451 78.1113C48.9161 78.1113 49.9464 76.8113 49.9464 75.2076C49.9464 73.604 48.9161 72.304 47.6451 72.304C46.3741 72.304 45.3438 73.604 45.3438 75.2076C45.3438 76.8113 46.3741 78.1113 47.6451 78.1113Z" fill="#464449"/>
</g>
<defs>
<clipPath id="clip0_107_447">
<rect width="94" height="94" fill="white"/>
</clipPath>
</defs>
</svg>
