<svg width="92" height="92" viewBox="0 0 92 92" fill="none" xmlns="http://www.w3.org/2000/svg">
<g clip-path="url(#clip0_107_497)">
<path fill-rule="evenodd" clip-rule="evenodd" d="M46.3412 12.5527C78.0217 12.5527 65.6746 65.0525 46.3412 65.0525C28.081 65.0525 14.6606 12.5527 46.3412 12.5527Z" fill="#FFE8BE"/>
<path d="M46 92C71.4051 92 92 71.4051 92 46C92 20.5949 71.4051 0 46 0C20.5949 0 0 20.5949 0 46C0 71.4051 20.5949 92 46 92Z" fill="#58B0E0"/>
<path fill-rule="evenodd" clip-rule="evenodd" d="M67.7153 29.7544L24.2861 30.0149C24.2861 30.0149 25.8462 54.0541 20.3872 61.5898H73.5345C72.1649 59.5801 68.543 58.9325 67.7153 29.7544Z" fill="#60350A"/>
<path fill-rule="evenodd" clip-rule="evenodd" d="M26.9971 67.8824L37.7245 63.138L54.9187 62.6914L65.9647 68.4928L57.9899 85.1883L46.6565 91.274L34.9332 84.7983L26.9971 67.8824Z" fill="#D5E1ED"/>
<path fill-rule="evenodd" clip-rule="evenodd" d="M36.8359 57.582L56.086 57.7071V71.0293L36.8359 70.9027V57.582Z" fill="#F9DCA4"/>
<path opacity="0.11" fill-rule="evenodd" clip-rule="evenodd" d="M56.0888 57.7279V63.0574C56.1097 63.6664 56.0898 64.2761 56.0293 64.8825C55.9396 65.5548 55.7835 66.2165 55.5633 66.858C49.0578 73.0583 38.6236 68.0191 36.9697 57.4302L56.0888 57.7279Z" fill="black"/>
<path fill-rule="evenodd" clip-rule="evenodd" d="M78.5975 78.4549C74.2876 82.7844 69.1583 86.2119 63.5092 88.5373C57.8601 90.8627 51.8044 92.0395 45.6956 91.9989C39.5867 91.9583 33.5471 90.7011 27.9295 88.3008C22.3118 85.9005 17.2286 82.4051 12.9766 78.0188L14.7942 73.4068L28.3457 67.2705C33.2017 76.1728 38.4836 84.426 46.6817 90.278C54.1027 84.101 60.114 76.4054 64.3106 67.7097L76.4344 73.4455L78.5975 78.4549Z" fill="#434955"/>
<path fill-rule="evenodd" clip-rule="evenodd" d="M28.4484 36.0005C24.0449 37.9209 27.7904 47.0316 30.5623 46.9914C29.4121 43.4277 28.7022 39.7366 28.4484 36.0005Z" fill="#F9DCA4"/>
<path fill-rule="evenodd" clip-rule="evenodd" d="M64.7677 35.999C69.1742 37.9224 65.4272 47.0316 62.6553 46.9914C63.8052 43.4272 64.5147 39.7356 64.7677 35.999Z" fill="#F9DCA4"/>
<path fill-rule="evenodd" clip-rule="evenodd" d="M46.3189 12.9009C59.3032 12.9009 64.7443 22.1307 65.0778 32.8C65.5348 47.404 56.6295 64.7024 46.3204 64.7024C36.5547 64.7024 27.4053 46.8115 27.9606 32.0587C28.3476 21.7079 33.6384 12.9009 46.3189 12.9009Z" fill="#FFE8BE"/>
<path fill-rule="evenodd" clip-rule="evenodd" d="M49.7204 37.1916C52.0465 35.7706 54.8104 35.2451 57.4958 35.7133H57.5032C65.1758 36.6512 65.2949 39.036 64.5491 39.5854C64.0498 39.9979 63.6503 40.518 63.3805 41.1068C63.2138 42.6611 62.6768 44.1528 61.8144 45.4567C61.2402 46.3563 60.4852 47.1268 59.5975 47.7193C58.7098 48.3117 57.7087 48.7133 56.6576 48.8985C56.4075 48.9387 56.1515 48.97 55.8895 48.9849C54.8652 49.0583 53.8381 48.8868 52.8932 48.4845C51.9483 48.0822 51.1128 47.4607 50.4558 46.6715C49.5056 45.5559 48.7607 44.2807 48.2555 42.9051V42.9096C48.2555 42.9096 47.0691 40.4741 45.171 42.7399C44.6612 44.1762 43.8944 45.5079 42.9082 46.67C42.251 47.4595 41.4153 48.0813 40.4702 48.4838C39.5251 48.8864 38.4977 49.0581 37.473 48.9849C37.2157 48.9688 36.9593 48.94 36.7049 48.8985C35.6538 48.7132 34.6527 48.3116 33.765 47.7191C32.8774 47.1267 32.1224 46.3562 31.5481 45.4567C30.6861 44.1532 30.149 42.6621 29.982 41.1083C29.7251 40.5175 29.3323 39.9957 28.8357 39.5854C28.0914 39.0345 28.203 36.6482 35.8757 35.7103H35.8787C38.5752 35.2445 41.3491 35.7792 43.6793 37.2139L43.6778 37.2124L43.6823 37.2154L44.0024 37.4104C44.8948 37.8667 45.8894 38.086 46.8909 38.0474C47.8924 38.0089 48.8672 37.7136 49.7219 37.1901L49.7204 37.1916ZM42.7653 38.1413C41.3818 37.3423 39.8251 36.8906 38.2287 36.825C36.6324 36.7594 35.0439 37.0818 33.5995 37.7647C31.3501 38.7859 30.6638 39.5065 31.5362 42.4734C31.7725 43.2827 32.1299 44.0516 32.5961 44.754C33.1223 45.6103 33.847 46.3272 34.7088 46.8441C35.5707 47.361 36.5443 47.6628 37.5475 47.724C38.3809 47.7813 39.216 47.6395 39.9838 47.3103C40.7516 46.981 41.43 46.4737 41.9629 45.8304C42.8454 44.7863 43.5314 43.5909 43.9875 42.3022C44.9983 39.6523 45.2707 39.5288 42.7668 38.1413H42.7653ZM59.0618 37.4714C57.6337 36.9349 56.1019 36.7318 54.5833 36.8776C53.0647 37.0234 51.5995 37.5142 50.2995 38.3125C48.0099 39.6687 48.4267 39.895 49.439 42.4659C49.8893 43.6938 50.5525 44.8327 51.3981 45.8304C51.9312 46.4739 52.6098 46.9813 53.3779 47.3106C54.1459 47.6399 54.9814 47.7816 55.815 47.724C56.0295 47.7111 56.2432 47.6872 56.4552 47.6525C57.3352 47.494 58.1728 47.1546 58.9149 46.6557C59.657 46.1568 60.2875 45.5092 60.7664 44.754C61.2064 44.0918 61.5493 43.3699 61.7846 42.6103C62.8297 39.2608 61.8978 38.515 59.0633 37.4729L59.0618 37.4714Z" fill="#464449"/>
<path fill-rule="evenodd" clip-rule="evenodd" d="M26.6327 38.1223C26.6327 37.1725 28.0975 36.8033 29.0116 42.5035C29.7497 40.1752 30.227 37.7721 30.4348 35.3385C32.1646 35.6734 33.826 39.5782 33.3034 43.0022C38.0166 41.8455 50.13 34.5361 54.069 24.6557C64.1503 30.4631 64.0952 42.6598 64.0952 42.6598C64.0952 42.6598 64.6282 39.8313 64.9259 37.4256C65.0242 36.6247 65.3621 36.3344 66.1139 37.1085C71.5654 25.8184 62.9713 8.56013 46.5914 8.29217C24.1004 7.92596 21.2392 32.2807 26.6342 38.1238L26.6327 38.1223Z" fill="#8A5C42"/>
<path fill-rule="evenodd" clip-rule="evenodd" d="M36.8671 63.166C39.2191 66.6711 42.5716 69.3871 46.4884 70.9607L40.224 80.1072L31.4155 65.5479L36.8671 63.166Z" fill="white"/>
<path fill-rule="evenodd" clip-rule="evenodd" d="M56.0964 63.166C53.7443 66.671 50.3918 69.387 46.4751 70.9607L52.7409 80.1072L61.603 65.7146L56.0964 63.166Z" fill="white"/>
<path d="M46.481 79.4972C47.1709 79.4972 47.7301 78.9379 47.7301 78.2481C47.7301 77.5583 47.1709 76.999 46.481 76.999C45.7912 76.999 45.2319 77.5583 45.2319 78.2481C45.2319 78.9379 45.7912 79.4972 46.481 79.4972Z" fill="#434955"/>
<path d="M46.481 85.0484C47.1709 85.0484 47.7301 84.4892 47.7301 83.7994C47.7301 83.1095 47.1709 82.5503 46.481 82.5503C45.7912 82.5503 45.2319 83.1095 45.2319 83.7994C45.2319 84.4892 45.7912 85.0484 46.481 85.0484Z" fill="#434955"/>
<path fill-rule="evenodd" clip-rule="evenodd" d="M62.5199 36.8252C65.1757 37.8851 65.0789 39.1788 64.5549 39.5659C64.0557 39.9784 63.6562 40.4985 63.3863 41.0873C63.27 42.163 62.9772 43.2121 62.5199 44.1927V36.8252ZM30.5595 43.493C30.2688 42.7187 30.0767 41.911 29.9878 41.0888C29.7309 40.498 29.3382 39.9762 28.8415 39.5659C28.3398 39.1952 28.2267 37.9879 30.5595 36.9547V43.493Z" fill="#464449"/>
</g>
<defs>
<clipPath id="clip0_107_497">
<rect width="92" height="92" fill="white"/>
</clipPath>
</defs>
</svg>
