<svg width="93" height="93" viewBox="0 0 93 93" fill="none" xmlns="http://www.w3.org/2000/svg">
<path d="M33.2472 22.8262H15.5951C15.0099 22.8262 14.4487 22.5963 14.0349 22.187C13.6211 21.7778 13.3886 21.2227 13.3886 20.6439C13.3886 20.0652 13.6211 19.5101 14.0349 19.1008C14.4487 18.6916 15.0099 18.4617 15.5951 18.4617H33.2472C33.8324 18.4617 34.3937 18.6916 34.8075 19.1008C35.2213 19.5101 35.4537 20.0652 35.4537 20.6439C35.4537 21.2227 35.2213 21.7778 34.8075 22.187C34.3937 22.5963 33.8324 22.8262 33.2472 22.8262ZM46.4863 35.9198H15.5951C15.0099 35.9198 14.4487 35.6899 14.0349 35.2806C13.6211 34.8714 13.3886 34.3163 13.3886 33.7375C13.3886 33.1587 13.6211 32.6037 14.0349 32.1944C14.4487 31.7852 15.0099 31.5553 15.5951 31.5553H46.4863C47.0715 31.5553 47.6327 31.7852 48.0465 32.1944C48.4603 32.6037 48.6928 33.1587 48.6928 33.7375C48.6928 34.3163 48.4603 34.8714 48.0465 35.2806C47.6327 35.6899 47.0715 35.9198 46.4863 35.9198ZM50.8993 49.0134H15.5951C15.0099 49.0134 14.4487 48.7835 14.0349 48.3742C13.6211 47.9649 13.3886 47.4099 13.3886 46.8311C13.3886 46.2523 13.6211 45.6973 14.0349 45.288C14.4487 44.8788 15.0099 44.6488 15.5951 44.6488H50.8993C51.4845 44.6488 52.0457 44.8788 52.4595 45.288C52.8733 45.6973 53.1058 46.2523 53.1058 46.8311C53.1058 47.4099 52.8733 47.9649 52.4595 48.3742C52.0457 48.7835 51.4845 49.0134 50.8993 49.0134ZM37.6602 62.107H15.5951C15.0099 62.107 14.4487 61.877 14.0349 61.4678C13.6211 61.0585 13.3886 60.5035 13.3886 59.9247C13.3886 59.3459 13.6211 58.7909 14.0349 58.3816C14.4487 57.9723 15.0099 57.7424 15.5951 57.7424H37.6602C38.2454 57.7424 38.8067 57.9723 39.2205 58.3816C39.6343 58.7909 39.8667 59.3459 39.8667 59.9247C39.8667 60.5035 39.6343 61.0585 39.2205 61.4678C38.8067 61.877 38.2454 62.107 37.6602 62.107ZM37.6602 75.2005H15.5951C15.0099 75.2005 14.4487 74.9706 14.0349 74.5614C13.6211 74.1521 13.3886 73.597 13.3886 73.0183C13.3886 72.4395 13.6211 71.8844 14.0349 71.4752C14.4487 71.0659 15.0099 70.836 15.5951 70.836H37.6602C38.2454 70.836 38.8067 71.0659 39.2205 71.4752C39.6343 71.8844 39.8667 72.4395 39.8667 73.0183C39.8667 73.597 39.6343 74.1521 39.2205 74.5614C38.8067 74.9706 38.2454 75.2005 37.6602 75.2005Z" fill="white"/>
<path d="M66.0171 73.3093C65.7272 73.3096 65.4401 73.2527 65.1723 73.1418C64.9045 73.0309 64.6613 72.8683 64.4567 72.6632L60.0424 68.2534C59.6348 67.8387 59.4075 67.2799 59.4101 66.6987C59.4128 66.1174 59.6451 65.5607 60.0565 65.1497C60.4679 64.7387 61.0252 64.5066 61.607 64.504C62.1888 64.5014 62.7482 64.7284 63.1633 65.1357L66.0171 67.9865L73.2851 60.7257C73.4896 60.5189 73.733 60.3545 74.0013 60.242C74.2696 60.1295 74.5575 60.0711 74.8485 60.0702C75.1394 60.0693 75.4277 60.1259 75.6967 60.2367C75.9657 60.3475 76.2101 60.5104 76.4159 60.716C76.6216 60.9215 76.7847 61.1657 76.8956 61.4344C77.0065 61.7032 77.0631 61.9911 77.0622 62.2818C77.0613 62.5725 77.0028 62.8602 76.8902 63.1282C76.7776 63.3962 76.613 63.6394 76.406 63.8436L67.5775 72.6632C67.3728 72.8683 67.1296 73.0309 66.8618 73.1418C66.594 73.2527 66.307 73.3096 66.0171 73.3093Z" fill="white"/>
<path d="M63.6007 92.8526H11.0894C8.189 92.8492 5.40839 91.6936 3.3575 89.6394C1.30662 87.5852 0.152941 84.8001 0.149536 81.8951V11.7671C0.152941 8.86201 1.30662 6.07691 3.3575 4.02272C5.40839 1.96852 8.189 0.812981 11.0894 0.80957H44.9154C46.373 0.810515 47.8158 1.10225 49.1596 1.66775C50.5033 2.23326 51.7212 3.06119 52.7421 4.10324L71.4232 23.2532C73.4253 25.3013 74.5447 28.0549 74.5405 30.9213V47.2484C74.5405 47.8296 74.31 48.387 73.8997 48.798C73.4893 49.209 72.9328 49.4399 72.3525 49.4399C71.7722 49.4399 71.2157 49.209 70.8054 48.798C70.3951 48.387 70.1646 47.8296 70.1646 47.2484V30.9213C70.1671 29.1987 69.4941 27.5441 68.2907 26.3136L49.6096 7.16363C48.9972 6.53912 48.2666 6.04315 47.4606 5.70472C46.6546 5.36628 45.7894 5.19218 44.9154 5.19257H11.0894C9.34911 5.19447 7.68066 5.88775 6.4501 7.1203C5.21954 8.35284 4.52737 10.024 4.52548 11.7671V81.8951C4.52737 83.6382 5.21954 85.3093 6.4501 86.5418C7.68066 87.7744 9.34911 88.4677 11.0894 88.4696H63.6007C64.4248 88.4728 65.2416 88.3135 66.0044 88.0009C66.2699 87.8908 66.5544 87.8342 66.8418 87.8343C67.1291 87.8344 67.4136 87.8912 67.679 88.0015C67.9444 88.1117 68.1855 88.2733 68.3885 88.4769C68.5915 88.6805 68.7525 88.9222 68.8623 89.1882C68.972 89.4542 69.0284 89.7392 69.0281 90.027C69.0279 90.3148 68.971 90.5997 68.8608 90.8654C68.7505 91.1312 68.5891 91.3726 68.3857 91.5759C68.1823 91.7791 67.9409 91.9402 67.6753 92.05C66.3832 92.584 64.9984 92.8568 63.6007 92.8526Z" fill="white"/>
<path d="M62.9872 29.3624H57.3469C54.46 29.359 51.6922 28.1988 49.6508 26.1364C47.6094 24.074 46.461 21.2777 46.4577 18.361V3.64022C46.4577 3.05667 46.6871 2.49702 47.0955 2.08439C47.504 1.67176 48.0579 1.43994 48.6355 1.43994C49.2131 1.43994 49.7671 1.67176 50.1755 2.08439C50.5839 2.49702 50.8134 3.05667 50.8134 3.64022V18.361C50.8153 20.1111 51.5042 21.7889 52.7291 23.0264C53.954 24.2639 55.6147 24.96 57.3469 24.9619H62.9872C63.5648 24.9619 64.1188 25.1937 64.5272 25.6063C64.9356 26.019 65.1651 26.5786 65.1651 27.1622C65.1651 27.7457 64.9356 28.3054 64.5272 28.718C64.1188 29.1306 63.5648 29.3624 62.9872 29.3624ZM68.2362 92.8526C67.3748 92.8519 66.533 92.5924 65.818 92.107L58.8271 87.3991C54.3482 84.3896 50.6759 80.3072 48.1376 75.5159C45.5994 70.7245 44.2741 65.3731 44.2798 59.9386V56.1805C44.2832 55.1899 44.6162 54.2292 45.2253 53.4529C45.8344 52.6765 46.6842 52.1297 47.6381 51.9003C54.1053 50.0945 60.2577 47.2904 65.8776 43.5869C66.5806 43.1289 67.3994 42.8852 68.2359 42.8848C69.0724 42.8844 69.8913 43.1274 70.5948 43.5847C76.2155 47.2885 82.3686 50.0956 88.8365 51.9024C89.7901 52.1314 90.6396 52.6779 91.2484 53.4539C91.8572 54.2299 92.1897 55.1903 92.1926 56.1805V59.9386C92.1983 65.3731 90.873 70.7245 88.3347 75.5159C85.7965 80.3073 82.1242 84.3897 77.6452 87.3992L70.6523 92.1092C69.9374 92.593 69.0966 92.8517 68.2362 92.8526ZM68.2298 47.2805C62.2083 51.2512 55.6123 54.2516 48.678 56.1741L48.6355 59.9386C48.6304 64.6485 49.7789 69.2865 51.9788 73.439C54.1786 77.5916 57.3613 81.1296 61.2432 83.7377L68.2362 88.4477L75.2292 83.7377C79.1111 81.1296 82.2938 77.5916 84.4936 73.439C86.6935 69.2865 87.842 64.6485 87.8369 59.9386V56.1805C80.8866 54.2573 74.2736 51.2564 68.234 47.2848L68.2298 47.2805Z" fill="white"/>
</svg>
