<svg width="570" height="495" viewBox="0 0 570 495" fill="none" xmlns="http://www.w3.org/2000/svg">
<path d="M524.032 202.511C516.503 146.188 473.896 99.048 439.482 69.4195C412.281 46.0053 385.731 30.925 354.084 21.9709C331.178 14.5836 306.751 10.5798 281.383 10.5798C260.235 10.5798 239.737 13.3695 220.233 18.5698C208.252 20.6539 197.821 23.3378 187.039 27.6738C169.071 34.9023 153.699 42.4836 140.044 50.8557C104.368 72.7236 76.3005 103.613 58.867 140.182C32.1315 196.265 25.7733 258.764 41.4158 311.654C54.5733 356.139 86.5995 392.97 111.153 416.031C118.387 422.831 126.378 430.045 135.165 436.109C146.876 445.842 162.377 456.71 181.269 466.246C214.487 483.008 250.307 491.58 286.45 491.58C297.887 491.58 309.357 490.724 320.785 488.993C353.564 484.037 390.319 468.283 421.622 445.769C450.672 424.877 470.511 401.269 477.131 380.05C478.272 378.378 479.392 376.69 480.492 374.982C519.53 332.143 533.793 275.496 524.032 202.511ZM44.7478 247.117C44.7478 305.225 65.7251 358.432 100.507 399.611C79.1561 377.149 55.982 346.303 45.386 310.481C30.0287 258.555 36.3046 197.132 62.6049 141.958C79.6943 106.112 107.218 75.8279 142.209 54.3774C146.479 51.7582 150.946 49.2242 155.596 46.7461C89.0081 88.6035 44.7478 162.688 44.7478 247.117ZM320.158 484.836C265.805 493.056 218.957 480.268 183.546 462.545C213.363 476.1 246.489 483.658 281.386 483.658C355.031 483.658 420.816 450.022 464.217 397.294C439.105 436.353 376.05 476.385 320.158 484.836ZM494.682 349.681C509.642 318.653 518.024 283.863 518.024 247.117C518.024 196.309 501.996 149.245 474.719 110.695C496.449 136.496 515.18 168.006 519.865 203.067C527.82 262.58 519.562 310.978 494.682 349.681Z" fill="#FF8A00"/>
<path d="M384.199 483.237C384.199 487.958 380.371 491.787 375.654 491.787H110.302C105.585 491.787 101.756 487.958 101.756 483.237V114.11C101.756 109.387 105.585 105.557 110.302 105.557H375.657C380.373 105.557 384.202 109.387 384.202 114.11V483.237H384.199Z" fill="#2E3C75"/>
<path d="M372.207 143.808H127.052V475.817H372.207V143.808Z" fill="#212B57"/>
<path d="M385.517 105.557H375.654C380.371 105.557 384.199 109.387 384.199 114.11V483.237C384.199 487.958 380.371 491.787 375.654 491.787H385.517C390.237 491.787 394.062 487.958 394.062 483.237V114.11C394.062 109.387 390.237 105.557 385.517 105.557Z" fill="#212B57"/>
<path d="M365.555 136.615H120.4V468.621H365.555V136.615Z" fill="white"/>
<path d="M313.564 95.3118H172.391V150.513H313.564V95.3118Z" fill="#7CC2ED"/>
<path opacity="0.5" d="M313.564 95.3118H280.779V150.513H313.564V95.3118Z" fill="white"/>
<path d="M191.982 133.159V95.3118H172.391V150.513H313.564V133.159H191.982Z" fill="#5DABDF"/>
<path d="M200.125 96.4656V81.6609C200.125 78.6823 202.545 76.26 205.524 76.26H280.438C283.411 76.26 285.831 78.6823 285.831 81.6609V96.4656H295.088V81.6609C295.088 73.5728 288.519 66.9946 280.438 66.9946H205.521C197.44 66.9946 190.868 73.5758 190.868 81.6609V96.4656H200.125Z" fill="#7CC2ED"/>
<path d="M215.405 200.269H296.773" stroke="#C3D7E1" stroke-width="9.978" stroke-miterlimit="10"/>
<path d="M303.792 200.269H342.668" stroke="#C3D7E1" stroke-width="9.978" stroke-miterlimit="10"/>
<path d="M342.668 232.818H261.3" stroke="#C3D7E1" stroke-width="9.978" stroke-miterlimit="10"/>
<path d="M254.277 232.818H215.405" stroke="#C3D7E1" stroke-width="9.978" stroke-miterlimit="10"/>
<path d="M215.405 249.094H246.555" stroke="#C3D7E1" stroke-width="9.978" stroke-miterlimit="10"/>
<path d="M251.56 249.094H299.908" stroke="#C3D7E1" stroke-width="9.978" stroke-miterlimit="10"/>
<path d="M215.405 216.545H246.555" stroke="#C3D7E1" stroke-width="9.978" stroke-miterlimit="10"/>
<path d="M251.56 216.545H282.167" stroke="#C3D7E1" stroke-width="9.978" stroke-miterlimit="10"/>
<path d="M285.349 216.545H342.668" stroke="#C3D7E1" stroke-width="9.978" stroke-miterlimit="10"/>
<path d="M143.526 281.064H270.698" stroke="#C3D7E1" stroke-width="9.978" stroke-miterlimit="10"/>
<path d="M281.67 281.064H342.43" stroke="#C3D7E1" stroke-width="9.978" stroke-miterlimit="10"/>
<path d="M342.43 313.611H215.257" stroke="#C3D7E1" stroke-width="9.978" stroke-miterlimit="10"/>
<path d="M204.283 313.611H143.526" stroke="#C3D7E1" stroke-width="9.978" stroke-miterlimit="10"/>
<path d="M143.526 329.884H192.209" stroke="#C3D7E1" stroke-width="9.978" stroke-miterlimit="10"/>
<path d="M200.031 329.884H275.594" stroke="#C3D7E1" stroke-width="9.978" stroke-miterlimit="10"/>
<path d="M143.526 297.335H192.209" stroke="#C3D7E1" stroke-width="9.978" stroke-miterlimit="10"/>
<path d="M200.031 297.335H247.875" stroke="#C3D7E1" stroke-width="9.978" stroke-miterlimit="10"/>
<path d="M252.839 297.335H342.43" stroke="#C3D7E1" stroke-width="9.978" stroke-miterlimit="10"/>
<path d="M143.526 362.425H270.698" stroke="#C3D7E1" stroke-width="9.978" stroke-miterlimit="10"/>
<path d="M281.67 362.425H342.43" stroke="#C3D7E1" stroke-width="9.978" stroke-miterlimit="10"/>
<path d="M342.43 394.972H215.257" stroke="#C3D7E1" stroke-width="9.978" stroke-miterlimit="10"/>
<path d="M204.283 394.972H143.526" stroke="#C3D7E1" stroke-width="9.978" stroke-miterlimit="10"/>
<path d="M143.526 411.248H192.209" stroke="#C3D7E1" stroke-width="9.978" stroke-miterlimit="10"/>
<path d="M200.031 411.248H275.594" stroke="#C3D7E1" stroke-width="9.978" stroke-miterlimit="10"/>
<path d="M143.526 378.698H192.209" stroke="#C3D7E1" stroke-width="9.978" stroke-miterlimit="10"/>
<path d="M200.031 378.698H247.875" stroke="#C3D7E1" stroke-width="9.978" stroke-miterlimit="10"/>
<path d="M252.839 378.698H342.43" stroke="#C3D7E1" stroke-width="9.978" stroke-miterlimit="10"/>
<path d="M204.865 224.683C204.865 241.636 191.132 255.378 174.2 255.378C157.261 255.378 143.531 241.636 143.531 224.683C143.531 207.733 157.261 193.994 174.2 193.994C191.132 193.991 204.865 207.733 204.865 224.683Z" fill="#CAE3F5"/>
<path d="M179.64 205.281H168.754V244.085H179.64V205.281Z" fill="white"/>
<path d="M193.582 219.232H154.815V230.131H193.582V219.232Z" fill="white"/>
<path d="M433.851 314.594L418.757 324.121L433.068 346.837L448.162 337.31L433.851 314.594Z" fill="#9FD3F4"/>
<path opacity="0.5" d="M452.623 259.628C443.298 300.828 402.373 326.664 361.212 317.337C320.043 308.007 294.232 267.043 303.554 225.843C312.876 184.643 353.804 158.807 394.965 168.137C436.129 177.464 461.945 218.426 452.623 259.628Z" fill="#9CD8F7"/>
<path opacity="0.5" d="M452.623 259.629C443.298 300.828 402.373 326.664 361.212 317.337C320.043 308.007 294.232 267.043 303.554 225.843L452.623 259.629Z" fill="#9CD8F7"/>
<path d="M327.33 162.315C282.902 190.362 269.604 249.145 297.626 293.608C325.648 338.075 384.376 351.388 428.804 323.341C473.228 295.295 486.526 236.509 458.507 192.045C430.489 147.584 371.754 134.272 327.33 162.315ZM418.835 307.524C383.135 330.061 335.943 319.365 313.426 283.637C290.909 247.905 301.596 200.672 337.296 178.135C372.995 155.599 420.187 166.295 442.704 202.023C465.221 237.754 454.534 284.988 418.835 307.524Z" fill="#36478A"/>
<path opacity="0.5" d="M423.134 199.81C421.796 208.086 405.24 212.289 386.164 209.196C367.085 206.102 352.708 196.881 354.046 188.605C355.384 180.325 371.937 176.119 391.019 179.216C410.095 182.306 424.472 191.527 423.134 199.81Z" fill="white"/>
<path d="M539.973 456.533C546.742 467.273 543.528 481.471 532.797 488.244C522.067 495.019 507.884 491.802 501.115 481.065L430.938 369.701C424.169 358.961 427.383 344.763 438.111 337.99C448.841 331.215 463.027 334.432 469.794 345.172L539.973 456.533Z" fill="#755797"/>
<path opacity="0.5" d="M448.374 334.543L540.326 480.459C544.543 473.28 544.716 464.059 539.973 456.533L469.794 345.169C465.05 337.637 456.66 333.825 448.374 334.543Z" fill="white"/>
<path d="M540.035 469.736C529.304 476.512 515.118 473.301 508.349 462.558L438.17 351.193C436.093 347.9 434.967 344.271 434.697 340.636C426.783 348.018 424.954 360.206 430.935 369.701L501.112 481.065C507.881 491.802 522.064 495.019 532.795 488.244C540.229 483.552 544.046 475.293 543.443 467.09C542.408 468.059 541.278 468.951 540.035 469.736Z" fill="#5C478D"/>
<path d="M192.655 319.674C127.467 319.674 105.611 277.353 105.611 277.353C105.611 277.353 83.7564 319.674 18.5675 319.674C18.5675 319.674 -1.51442 445.234 105.611 491.787C212.737 445.234 192.655 319.674 192.655 319.674Z" fill="#36478A"/>
<path d="M177.067 335.85C141.502 332.333 118.797 317.134 105.614 304.272C92.4314 317.134 69.7235 332.333 34.1619 335.85C33.6914 347.606 34.0825 365.824 38.6582 385.585C48.086 426.306 70.5968 455.721 105.614 473.13C140.632 455.721 163.143 426.306 172.571 385.585C177.143 365.83 177.537 347.614 177.067 335.85Z" fill="#9FD3F4"/>
<path d="M116.892 344.365H94.3369V424.778H116.892V344.365Z" fill="white"/>
<path d="M145.784 373.286H65.4418V395.858H145.784V373.286Z" fill="white"/>
<path d="M104.909 278.58C100.739 285.491 77.1663 319.674 18.5704 319.674C18.5704 319.674 -1.41151 444.669 104.909 491.469V278.58Z" fill="#9DC1D5" fill-opacity="0.52"/>
<path d="M163.122 350.67C161.446 356.115 149.201 357.174 135.774 353.036C122.344 348.898 112.822 341.128 114.492 335.68C116.171 330.232 128.414 329.172 141.841 333.31C155.271 337.451 164.798 345.222 163.122 350.67Z" fill="#C4E1F7"/>
<path d="M553.756 252.22C553.756 253.527 552.694 254.59 551.388 254.59H503.173C501.865 254.59 500.806 253.527 500.806 252.22C500.806 250.911 501.867 249.851 503.173 249.851H551.388C552.694 249.848 553.756 250.911 553.756 252.22Z" fill="#020614"/>
<path d="M52.9528 168.599C52.9528 169.906 51.8912 170.968 50.5855 170.968H2.36724C1.05864 170.968 0 169.906 0 168.599C0 167.289 1.06158 166.23 2.36724 166.23H50.5826C51.8912 166.23 52.9528 167.289 52.9528 168.599Z" fill="#020614"/>
<path d="M68.0178 168.599C68.0178 169.906 66.9592 170.968 65.6506 170.968H60.4868C59.1782 170.968 58.1195 169.906 58.1195 168.599C58.1195 167.289 59.1811 166.23 60.4868 166.23H65.6506C66.9592 166.23 68.0178 167.289 68.0178 168.599Z" fill="#020614"/>
<path d="M17.0706 54.9331C17.0706 56.2399 16.012 57.3024 14.7063 57.3024H9.53662C8.22802 57.3024 7.16937 56.2399 7.16937 54.9331C7.16937 53.6234 8.23096 52.5638 9.53662 52.5638H14.7034C16.012 52.5608 17.0706 53.6234 17.0706 54.9331Z" fill="#020614"/>
<path d="M58.7694 54.9331C58.7694 56.2399 57.7108 57.3024 56.4022 57.3024H51.2354C49.9297 57.3024 48.8682 56.2399 48.8682 54.9331C48.8682 53.6234 49.9297 52.5638 51.2354 52.5638H56.4022C57.7108 52.5608 58.7694 53.6234 58.7694 54.9331Z" fill="#020614"/>
<path d="M75.8842 54.9331C75.8842 56.2399 74.8226 57.3024 73.514 57.3024H68.3502C67.0415 57.3024 65.9829 56.2399 65.9829 54.9331C65.9829 53.6234 67.0445 52.5638 68.3502 52.5638H73.514C74.8196 52.5608 75.8842 53.6234 75.8842 54.9331Z" fill="#020614"/>
<path d="M43.4103 54.9331C43.4103 56.2399 42.3487 57.3024 41.043 57.3024H26.1132C24.8046 57.3024 23.746 56.2399 23.746 54.9331C23.746 53.6234 24.8076 52.5638 26.1132 52.5638H41.043C42.3487 52.5608 43.4103 53.6234 43.4103 54.9331Z" fill="#020614"/>
<path d="M436.726 101.54C436.726 102.849 435.667 103.909 434.361 103.909H429.195C427.886 103.909 426.824 102.847 426.824 101.54C426.824 100.23 427.886 99.1704 429.195 99.1704H434.361C435.667 99.1675 436.726 100.23 436.726 101.54Z" fill="#020614"/>
<path d="M478.424 101.54C478.424 102.849 477.363 103.909 476.057 103.909H470.89C469.585 103.909 468.523 102.847 468.523 101.54C468.523 100.23 469.585 99.1704 470.89 99.1704H476.057C477.363 99.1675 478.424 100.23 478.424 101.54Z" fill="#020614"/>
<path d="M463.062 101.54C463.062 102.849 462.001 103.909 460.695 103.909H445.765C444.457 103.909 443.398 102.847 443.398 101.54C443.398 100.23 444.46 99.1704 445.765 99.1704H460.695C462.004 99.1675 463.062 100.23 463.062 101.54Z" fill="#020614"/>
<path d="M75.3431 491.787C75.3431 493.097 74.2815 494.16 72.9758 494.16H24.7605C23.4519 494.16 22.3932 493.097 22.3932 491.787C22.3932 490.481 23.4548 489.418 24.7605 489.418H72.9758C74.2844 489.418 75.3431 490.481 75.3431 491.787Z" fill="#020614"/>
<path d="M554.938 367.099C554.938 368.406 553.876 369.468 552.571 369.468H504.355C503.047 369.468 501.988 368.406 501.988 367.099C501.988 365.789 503.047 364.729 504.355 364.729H552.571C553.876 364.729 554.938 365.789 554.938 367.099Z" fill="#020614"/>
<path d="M570 367.099C570 368.406 568.944 369.468 567.633 369.468H562.469C561.16 369.468 560.102 368.406 560.102 367.099C560.102 365.789 561.163 364.729 562.469 364.729H567.633C568.941 364.729 570 365.789 570 367.099Z" fill="#020614"/>
<path d="M435.179 468.618C435.179 469.928 434.12 470.99 432.812 470.99H427.648C426.339 470.99 425.281 469.928 425.281 468.618C425.281 467.311 426.339 466.249 427.648 466.249H432.812C434.117 466.252 435.179 467.311 435.179 468.618Z" fill="#020614"/>
<path d="M461.518 468.618C461.518 469.928 460.457 470.99 459.151 470.99H444.221C442.913 470.99 441.854 469.928 441.854 468.618C441.854 467.311 442.913 466.249 444.221 466.249H459.151C460.457 466.252 461.518 467.311 461.518 468.618Z" fill="#020614"/>
<path d="M483.003 316.996C483.003 319.865 480.68 322.191 477.816 322.191C474.951 322.191 472.628 319.865 472.628 316.996C472.628 314.129 474.951 311.804 477.816 311.804C480.68 311.804 483.003 314.126 483.003 316.996Z" fill="#020614"/>
<path d="M560.122 150.822C560.122 153.691 557.799 156.014 554.935 156.014C552.071 156.014 549.748 153.691 549.748 150.822C549.748 147.955 552.071 145.63 554.935 145.63C557.799 145.63 560.122 147.955 560.122 150.822Z" fill="#020614"/>
<path d="M26.419 281.064C26.419 283.931 24.0988 286.256 21.2317 286.256C18.3645 286.256 16.0414 283.931 16.0414 281.064C16.0414 278.197 18.3645 275.872 21.2317 275.872C24.0959 275.872 26.419 278.197 26.419 281.064Z" fill="#020614"/>
<path d="M526.299 30.8572C526.299 33.7269 523.975 36.0491 521.111 36.0491C518.244 36.0491 515.921 33.7269 515.921 30.8572C515.921 27.9905 518.244 25.6653 521.111 25.6653C523.975 25.6653 526.299 27.9905 526.299 30.8572Z" fill="#020614"/>
<path d="M308.824 5.19192C308.824 8.06161 306.501 10.3838 303.637 10.3838C300.772 10.3838 298.449 8.05866 298.449 5.19192C298.449 2.32518 300.772 0 303.637 0C306.504 0 308.824 2.32518 308.824 5.19192Z" fill="#020614"/>
<path d="M182.213 44.2697C182.213 47.1364 179.89 49.4616 177.026 49.4616C174.159 49.4616 171.838 47.1364 171.838 44.2697C171.838 41.4 174.159 39.0778 177.026 39.0778C179.89 39.0778 182.213 41.4 182.213 44.2697Z" fill="#020614"/>
</svg>
