<svg width="527" height="425" viewBox="0 0 527 425" fill="none" xmlns="http://www.w3.org/2000/svg">
<path d="M367.199 416.237C367.199 420.958 363.371 424.787 358.654 424.787H93.3018C88.585 424.787 84.7562 420.958 84.7562 416.237V47.1104C84.7562 42.3865 88.585 38.5573 93.3018 38.5573H358.657C363.373 38.5573 367.202 42.3865 367.202 47.1104V416.237H367.199Z" fill="#2E3C75"/>
<path d="M355.207 76.808H110.052V408.817H355.207V76.808Z" fill="#212B57"/>
<path d="M368.517 38.5573H358.654C363.371 38.5573 367.199 42.3865 367.199 47.1104V416.237C367.199 420.958 363.371 424.787 358.654 424.787H368.517C373.237 424.787 377.062 420.958 377.062 416.237V47.1104C377.062 42.3865 373.237 38.5573 368.517 38.5573Z" fill="#212B57"/>
<path d="M348.555 69.6146H103.4V401.621H348.555V69.6146Z" fill="white"/>
<path d="M296.564 28.3118H155.391V83.5128H296.564V28.3118Z" fill="#7CC2ED"/>
<path opacity="0.5" d="M296.564 28.3118H263.779V83.5128H296.564V28.3118Z" fill="white"/>
<path d="M174.982 66.1593V28.3118H155.391V83.5128H296.564V66.1593H174.982Z" fill="#5DABDF"/>
<path d="M183.125 29.4656V14.6609C183.125 11.6823 185.545 9.26003 188.524 9.26003H263.438C266.411 9.26003 268.831 11.6823 268.831 14.6609V29.4656H278.088V14.6609C278.088 6.57283 271.519 -0.00537109 263.438 -0.00537109H188.521C180.44 -0.00537109 173.868 6.57578 173.868 14.6609V29.4656H183.125Z" fill="#7CC2ED"/>
<path d="M198.405 133.269H279.773" stroke="#C3D7E1" stroke-width="9.978" stroke-miterlimit="10"/>
<path d="M286.792 133.269H325.668" stroke="#C3D7E1" stroke-width="9.978" stroke-miterlimit="10"/>
<path d="M325.668 165.818H244.3" stroke="#C3D7E1" stroke-width="9.978" stroke-miterlimit="10"/>
<path d="M237.277 165.818H198.405" stroke="#C3D7E1" stroke-width="9.978" stroke-miterlimit="10"/>
<path d="M198.405 182.095H229.555" stroke="#C3D7E1" stroke-width="9.978" stroke-miterlimit="10"/>
<path d="M234.56 182.095H282.908" stroke="#C3D7E1" stroke-width="9.978" stroke-miterlimit="10"/>
<path d="M198.405 149.545H229.555" stroke="#C3D7E1" stroke-width="9.978" stroke-miterlimit="10"/>
<path d="M234.56 149.545H265.167" stroke="#C3D7E1" stroke-width="9.978" stroke-miterlimit="10"/>
<path d="M268.349 149.545H325.668" stroke="#C3D7E1" stroke-width="9.978" stroke-miterlimit="10"/>
<path d="M126.526 214.064H253.698" stroke="#C3D7E1" stroke-width="9.978" stroke-miterlimit="10"/>
<path d="M264.67 214.064H325.43" stroke="#C3D7E1" stroke-width="9.978" stroke-miterlimit="10"/>
<path d="M325.43 246.611H198.257" stroke="#C3D7E1" stroke-width="9.978" stroke-miterlimit="10"/>
<path d="M187.283 246.611H126.526" stroke="#C3D7E1" stroke-width="9.978" stroke-miterlimit="10"/>
<path d="M126.526 262.884H175.209" stroke="#C3D7E1" stroke-width="9.978" stroke-miterlimit="10"/>
<path d="M183.031 262.884H258.594" stroke="#C3D7E1" stroke-width="9.978" stroke-miterlimit="10"/>
<path d="M126.526 230.335H175.209" stroke="#C3D7E1" stroke-width="9.978" stroke-miterlimit="10"/>
<path d="M183.031 230.335H230.875" stroke="#C3D7E1" stroke-width="9.978" stroke-miterlimit="10"/>
<path d="M235.839 230.335H325.43" stroke="#C3D7E1" stroke-width="9.978" stroke-miterlimit="10"/>
<path d="M126.526 295.425H253.698" stroke="#C3D7E1" stroke-width="9.978" stroke-miterlimit="10"/>
<path d="M264.67 295.425H325.43" stroke="#C3D7E1" stroke-width="9.978" stroke-miterlimit="10"/>
<path d="M325.43 327.972H198.257" stroke="#C3D7E1" stroke-width="9.978" stroke-miterlimit="10"/>
<path d="M187.283 327.972H126.526" stroke="#C3D7E1" stroke-width="9.978" stroke-miterlimit="10"/>
<path d="M126.526 344.248H175.209" stroke="#C3D7E1" stroke-width="9.978" stroke-miterlimit="10"/>
<path d="M183.031 344.248H258.594" stroke="#C3D7E1" stroke-width="9.978" stroke-miterlimit="10"/>
<path d="M126.526 311.698H175.209" stroke="#C3D7E1" stroke-width="9.978" stroke-miterlimit="10"/>
<path d="M183.031 311.698H230.875" stroke="#C3D7E1" stroke-width="9.978" stroke-miterlimit="10"/>
<path d="M235.839 311.698H325.43" stroke="#C3D7E1" stroke-width="9.978" stroke-miterlimit="10"/>
<path d="M187.865 157.683C187.865 174.636 174.132 188.378 157.2 188.378C140.261 188.378 126.531 174.636 126.531 157.683C126.531 140.733 140.261 126.994 157.2 126.994C174.132 126.991 187.865 140.733 187.865 157.683Z" fill="#CAE3F5"/>
<path d="M162.64 138.281H151.754V177.085H162.64V138.281Z" fill="white"/>
<path d="M176.582 152.232H137.815V163.131H176.582V152.232Z" fill="white"/>
<path d="M416.851 247.594L401.757 257.121L416.068 279.837L431.162 270.31L416.851 247.594Z" fill="#9FD3F4"/>
<path opacity="0.5" d="M435.623 192.628C426.298 233.828 385.373 259.664 344.212 250.337C303.043 241.007 277.232 200.043 286.554 158.843C295.876 117.643 336.804 91.8069 377.965 101.137C419.129 110.464 444.945 151.426 435.623 192.628Z" fill="#9CD8F7"/>
<path opacity="0.5" d="M435.623 192.628C426.298 233.828 385.373 259.664 344.212 250.337C303.043 241.007 277.232 200.043 286.554 158.843L435.623 192.628Z" fill="#9CD8F7"/>
<path d="M310.33 95.3152C265.902 123.362 252.604 182.145 280.626 226.608C308.648 271.075 367.376 284.388 411.804 256.341C456.228 228.295 469.526 169.509 441.507 125.045C413.489 80.5842 354.754 67.2718 310.33 95.3152ZM401.835 240.524C366.135 263.061 318.943 252.365 296.426 216.637C273.909 180.905 284.596 133.672 320.296 111.135C355.995 88.5987 403.187 99.2945 425.704 135.023C448.221 170.754 437.534 217.988 401.835 240.524Z" fill="#36478A"/>
<path opacity="0.5" d="M406.134 132.81C404.796 141.086 388.24 145.289 369.164 142.196C350.085 139.102 335.708 129.881 337.046 121.604C338.384 113.325 354.937 109.119 374.019 112.215C393.095 115.306 407.472 124.527 406.134 132.81Z" fill="white"/>
<path d="M522.973 389.533C529.742 400.273 526.528 414.471 515.797 421.244C505.067 428.019 490.884 424.802 484.115 414.065L413.938 302.701C407.169 291.961 410.383 277.762 421.111 270.99C431.841 264.215 446.027 267.432 452.794 278.172L522.973 389.533Z" fill="#755797"/>
<path opacity="0.5" d="M431.374 267.543L523.326 413.459C527.543 406.28 527.716 397.059 522.973 389.533L452.794 278.169C448.05 270.637 439.66 266.825 431.374 267.543Z" fill="white"/>
<path d="M523.035 402.736C512.304 409.512 498.118 406.301 491.349 395.558L421.17 284.193C419.093 280.9 417.967 277.271 417.697 273.636C409.783 281.018 407.954 293.206 413.935 302.701L484.112 414.065C490.881 424.802 505.064 428.019 515.795 421.244C523.229 416.552 527.046 408.293 526.443 400.09C525.408 401.059 524.278 401.951 523.035 402.736Z" fill="#5C478D"/>
<path d="M175.655 252.674C110.467 252.674 88.6115 210.353 88.6115 210.353C88.6115 210.353 66.7564 252.674 1.56745 252.674C1.56745 252.674 -18.5144 378.234 88.6115 424.787C195.737 378.234 175.655 252.674 175.655 252.674Z" fill="#36478A"/>
<path d="M160.067 268.85C124.502 265.333 101.797 250.134 88.6144 237.272C75.4314 250.134 52.7235 265.333 17.1619 268.85C16.6914 280.606 17.0825 298.824 21.6582 318.586C31.086 359.306 53.5968 388.721 88.6144 406.13C123.632 388.721 146.143 359.306 155.571 318.586C160.143 298.83 160.537 280.614 160.067 268.85Z" fill="#9FD3F4"/>
<path d="M99.8919 277.365H77.3369V357.778H99.8919V277.365Z" fill="white"/>
<path d="M128.784 306.286H48.4418V328.858H128.784V306.286Z" fill="white"/>
<path d="M87.9086 211.58C83.7387 218.491 60.1663 252.674 1.57038 252.674C1.57038 252.674 -18.4115 377.669 87.9086 424.47V211.58Z" fill="#9DC1D5" fill-opacity="0.52"/>
<path d="M146.122 283.67C144.446 289.115 132.201 290.174 118.774 286.036C105.344 281.898 95.822 274.128 97.4923 268.68C99.1715 263.232 111.414 262.172 124.841 266.31C138.271 270.451 147.798 278.222 146.122 283.67Z" fill="#C4E1F7"/>
</svg>
