<svg width="117" height="56" viewBox="0 0 117 56" fill="none" xmlns="http://www.w3.org/2000/svg">
<path d="M28.0655 55.5468C21.122 55.5468 13.8891 52.943 8.6815 47.4461C-2.02311 36.7415 -2.02311 19.0933 8.6815 8.38873C18.2288 -1.15862 33.2732 -2.31588 44.2671 5.49559C45.4243 6.36353 45.7136 8.38873 44.8457 9.54598C43.9778 10.7032 42.2419 10.9926 40.7953 10.1246C32.1159 3.75971 20.254 4.62765 12.7319 12.4391C4.34179 20.8292 4.34179 34.7163 12.7319 43.1064C21.122 51.4965 35.009 51.4965 43.3991 43.1064C43.6884 42.8171 43.9778 42.5277 44.2671 41.9491C45.4243 40.7919 47.1602 40.5025 48.3175 41.6598C49.4747 42.8171 49.764 44.5529 48.6068 45.7102C48.3175 46.2888 47.7388 46.5781 47.4495 46.8674C41.9526 52.943 35.009 55.5468 28.0655 55.5468Z" fill="white"/>
<path d="M28.0655 40.5026C24.883 40.5026 21.7006 39.3454 19.3861 36.7416C17.0716 34.4271 15.625 31.2446 15.625 28.0622C15.625 24.8797 16.7823 21.6973 19.3861 19.3827C21.7006 17.0682 24.883 15.6217 28.0655 15.6217C31.248 15.6217 34.4304 16.7789 36.7449 19.3827C37.9022 20.54 37.9022 22.2759 36.7449 23.4331C35.5877 24.5904 33.8518 24.5904 32.6945 23.4331C30.0907 20.8293 25.751 20.8293 23.4365 23.4331C22.2792 24.5904 21.4113 26.3263 21.4113 28.0622C21.4113 29.798 21.9899 31.5339 23.4365 32.6912C26.0403 35.295 30.38 35.295 32.6945 32.6912C33.8518 31.5339 35.5877 31.5339 36.7449 32.6912C37.9022 33.8484 37.9022 35.5843 36.7449 36.7416C34.4304 39.3454 31.248 40.5026 28.0655 40.5026ZM105.023 43.9744C100.973 43.9744 98.9473 41.6599 97.5008 40.2133C96.0542 38.7668 95.4756 38.1881 94.029 38.1881C92.5824 38.1881 92.0038 38.7668 90.5572 40.2133C89.1107 41.9492 87.0855 43.9744 83.0351 43.9744C78.9847 43.9744 76.9595 41.6599 75.5129 40.2133C74.0664 38.7668 73.4877 38.1881 72.0412 38.1881C70.5946 38.1881 70.016 38.7668 68.5694 40.2133C67.1228 41.9492 65.0976 43.9744 61.0473 43.9744C56.9969 43.9744 54.9717 41.6599 53.5251 40.2133C52.3678 39.0561 51.7892 38.4774 50.9213 38.1881C49.4747 37.8988 48.3175 36.1629 48.6068 34.7164C48.8961 33.2698 50.632 32.1125 52.0785 32.4019C54.6824 32.9805 56.4182 34.7164 57.5755 35.8736C59.0221 37.3202 59.6007 37.8988 61.0473 37.8988C62.4938 37.8988 63.0724 37.3202 64.519 35.8736C65.9656 34.1377 67.9908 32.1126 72.0412 32.1126C76.0916 32.1126 78.1168 34.4271 79.5633 35.8736C81.0099 37.3202 81.5885 37.8988 83.0351 37.8988C84.4817 37.8988 85.0603 37.3202 86.5069 35.8736C87.9534 34.1377 89.9786 32.1126 94.029 32.1126C98.0794 32.1126 100.105 34.4271 101.551 35.8736C102.419 36.7416 102.998 37.3202 103.576 37.6095L110.231 27.7728L103.576 17.6469H48.8961C47.1602 17.6469 46.0029 16.4896 46.0029 14.7537C46.0029 13.0179 47.1602 11.8606 48.8961 11.8606H105.023C105.891 11.8606 106.759 12.4392 107.337 13.0179L116.017 26.037C116.595 26.9049 116.595 28.3515 116.017 29.2194L107.337 42.2385C106.759 43.6851 105.891 43.9744 105.023 43.9744Z" fill="white"/>
</svg>
