<svg width="570" height="495" viewBox="0 0 570 495" fill="none" xmlns="http://www.w3.org/2000/svg">
<path d="M553.756 252.22C553.756 253.527 552.694 254.59 551.388 254.59H503.173C501.865 254.59 500.806 253.527 500.806 252.22C500.806 250.911 501.867 249.851 503.173 249.851H551.388C552.694 249.848 553.756 250.911 553.756 252.22Z" fill="#020614"/>
<path d="M52.9528 168.599C52.9528 169.906 51.8912 170.968 50.5855 170.968H2.36724C1.05864 170.968 0 169.906 0 168.599C0 167.289 1.06158 166.23 2.36724 166.23H50.5826C51.8912 166.23 52.9528 167.289 52.9528 168.599Z" fill="#020614"/>
<path d="M68.0178 168.599C68.0178 169.906 66.9592 170.968 65.6506 170.968H60.4868C59.1782 170.968 58.1195 169.906 58.1195 168.599C58.1195 167.289 59.1811 166.23 60.4868 166.23H65.6506C66.9592 166.23 68.0178 167.289 68.0178 168.599Z" fill="#020614"/>
<path d="M17.0706 54.9331C17.0706 56.2399 16.012 57.3024 14.7063 57.3024H9.53662C8.22802 57.3024 7.16937 56.2399 7.16937 54.9331C7.16937 53.6234 8.23096 52.5638 9.53662 52.5638H14.7034C16.012 52.5608 17.0706 53.6234 17.0706 54.9331Z" fill="#020614"/>
<path d="M58.7694 54.9331C58.7694 56.2399 57.7108 57.3024 56.4022 57.3024H51.2354C49.9297 57.3024 48.8682 56.2399 48.8682 54.9331C48.8682 53.6234 49.9297 52.5638 51.2354 52.5638H56.4022C57.7108 52.5608 58.7694 53.6234 58.7694 54.9331Z" fill="#020614"/>
<path d="M75.8842 54.9331C75.8842 56.2399 74.8226 57.3024 73.514 57.3024H68.3502C67.0415 57.3024 65.9829 56.2399 65.9829 54.9331C65.9829 53.6234 67.0445 52.5638 68.3502 52.5638H73.514C74.8196 52.5608 75.8842 53.6234 75.8842 54.9331Z" fill="#020614"/>
<path d="M43.4103 54.9331C43.4103 56.2399 42.3487 57.3024 41.043 57.3024H26.1132C24.8046 57.3024 23.746 56.2399 23.746 54.9331C23.746 53.6234 24.8076 52.5638 26.1132 52.5638H41.043C42.3487 52.5608 43.4103 53.6234 43.4103 54.9331Z" fill="#020614"/>
<path d="M436.726 101.54C436.726 102.849 435.667 103.909 434.361 103.909H429.195C427.886 103.909 426.824 102.847 426.824 101.54C426.824 100.23 427.886 99.1704 429.195 99.1704H434.361C435.667 99.1675 436.726 100.23 436.726 101.54Z" fill="#020614"/>
<path d="M478.424 101.54C478.424 102.849 477.363 103.909 476.057 103.909H470.89C469.585 103.909 468.523 102.847 468.523 101.54C468.523 100.23 469.585 99.1704 470.89 99.1704H476.057C477.363 99.1675 478.424 100.23 478.424 101.54Z" fill="#020614"/>
<path d="M463.062 101.54C463.062 102.849 462.001 103.909 460.695 103.909H445.765C444.457 103.909 443.398 102.847 443.398 101.54C443.398 100.23 444.46 99.1704 445.765 99.1704H460.695C462.004 99.1675 463.062 100.23 463.062 101.54Z" fill="#020614"/>
<path d="M75.3431 491.787C75.3431 493.097 74.2815 494.16 72.9758 494.16H24.7605C23.4519 494.16 22.3932 493.097 22.3932 491.787C22.3932 490.481 23.4548 489.418 24.7605 489.418H72.9758C74.2844 489.418 75.3431 490.481 75.3431 491.787Z" fill="#020614"/>
<path d="M554.938 367.099C554.938 368.406 553.876 369.468 552.571 369.468H504.355C503.047 369.468 501.988 368.406 501.988 367.099C501.988 365.789 503.047 364.73 504.355 364.73H552.571C553.876 364.73 554.938 365.789 554.938 367.099Z" fill="#020614"/>
<path d="M570 367.099C570 368.406 568.944 369.468 567.633 369.468H562.469C561.16 369.468 560.102 368.406 560.102 367.099C560.102 365.789 561.163 364.73 562.469 364.73H567.633C568.941 364.73 570 365.789 570 367.099Z" fill="#020614"/>
<path d="M435.179 468.618C435.179 469.928 434.12 470.99 432.812 470.99H427.648C426.339 470.99 425.281 469.928 425.281 468.618C425.281 467.311 426.339 466.249 427.648 466.249H432.812C434.117 466.252 435.179 467.311 435.179 468.618Z" fill="#020614"/>
<path d="M461.518 468.618C461.518 469.928 460.457 470.99 459.151 470.99H444.221C442.913 470.99 441.854 469.928 441.854 468.618C441.854 467.311 442.913 466.249 444.221 466.249H459.151C460.457 466.252 461.518 467.311 461.518 468.618Z" fill="#020614"/>
<path d="M483.003 316.996C483.003 319.865 480.68 322.191 477.816 322.191C474.951 322.191 472.628 319.865 472.628 316.996C472.628 314.129 474.951 311.804 477.816 311.804C480.68 311.804 483.003 314.126 483.003 316.996Z" fill="#020614"/>
<path d="M560.122 150.822C560.122 153.691 557.799 156.014 554.935 156.014C552.071 156.014 549.748 153.691 549.748 150.822C549.748 147.955 552.071 145.63 554.935 145.63C557.799 145.63 560.122 147.955 560.122 150.822Z" fill="#020614"/>
<path d="M26.419 281.064C26.419 283.931 24.0988 286.256 21.2317 286.256C18.3645 286.256 16.0414 283.931 16.0414 281.064C16.0414 278.198 18.3645 275.872 21.2317 275.872C24.0959 275.872 26.419 278.198 26.419 281.064Z" fill="#020614"/>
<path d="M526.299 30.8572C526.299 33.7269 523.975 36.0491 521.111 36.0491C518.244 36.0491 515.921 33.7269 515.921 30.8572C515.921 27.9905 518.244 25.6653 521.111 25.6653C523.975 25.6653 526.299 27.9905 526.299 30.8572Z" fill="#020614"/>
<path d="M308.824 5.19192C308.824 8.06161 306.501 10.3838 303.637 10.3838C300.772 10.3838 298.449 8.05866 298.449 5.19192C298.449 2.32518 300.772 0 303.637 0C306.504 0 308.824 2.32518 308.824 5.19192Z" fill="#020614"/>
<path d="M182.213 44.2697C182.213 47.1364 179.89 49.4616 177.026 49.4616C174.159 49.4616 171.838 47.1364 171.838 44.2697C171.838 41.4 174.159 39.0777 177.026 39.0777C179.89 39.0777 182.213 41.4 182.213 44.2697Z" fill="#020614"/>
</svg>
