<svg width="57" height="57" viewBox="0 0 57 57" fill="none" xmlns="http://www.w3.org/2000/svg">
<g clip-path="url(#clip0_211_2137)">
<mask id="mask0_211_2137" style="mask-type:luminance" maskUnits="userSpaceOnUse" x="0" y="0" width="57" height="57">
<path d="M0 0H57V57H0V0Z" fill="white"/>
</mask>
<g mask="url(#mask0_211_2137)">
<path d="M37.5 16.5C37.5 17.2956 37.1839 18.0587 36.6213 18.6213C36.0587 19.1839 35.2957 19.5 34.5 19.5H22.5C21.7044 19.5 20.9413 19.1839 20.3787 18.6213C19.8161 18.0587 19.5 17.2956 19.5 16.5V4.5C19.5 3.70435 19.8161 2.94128 20.3787 2.37867C20.9413 1.81606 21.7044 1.5 22.5 1.5H34.5C35.2957 1.5 36.0587 1.81606 36.6213 2.37867C37.1839 2.94128 37.5 3.70435 37.5 4.5V16.5ZM1.5 22.5V52.5C1.5 53.2956 1.81607 54.0587 2.37868 54.6213C2.94129 55.1839 3.70435 55.5 4.5 55.5H52.5C53.2957 55.5 54.0587 55.1839 54.6213 54.6213C55.1839 54.0587 55.5 53.2956 55.5 52.5V22.5H1.5Z" fill="#D1D3D4"/>
<path d="M28.5 19.5H4.5C3.70435 19.5 2.94129 19.8161 2.37868 20.3787C1.81607 20.9413 1.5 21.7044 1.5 22.5H31.5C31.5 21.7044 31.1839 20.9413 30.6213 20.3787C30.0587 19.8161 29.2956 19.5 28.5 19.5Z" fill="#808285"/>
<path d="M52.5 19.5H28.5C27.7044 19.5 26.9413 19.8161 26.3787 20.3787C25.8161 20.9413 25.5 21.7044 25.5 22.5H55.5C55.5 21.7044 55.1839 20.9413 54.6213 20.3787C54.0587 19.8161 53.2956 19.5 52.5 19.5Z" fill="#808285"/>
<path d="M52.5 40.5H4.5V34.5H52.5V40.5ZM52.5 31.5H4.5V25.5H52.5V31.5ZM52.5 49.5H4.5V43.5H52.5V49.5Z" fill="#55ACEE"/>
<path d="M43.5 55.5H13.5V19.5H43.5V55.5Z" fill="#E6E7E8"/>
<path d="M40.5 37.5H16.5V31.5H40.5V37.5ZM40.5 28.5H16.5V22.5H40.5V28.5ZM40.5 46.5H16.5V40.5H40.5V46.5Z" fill="#55ACEE"/>
<path d="M36 55.5H21V49.5H36V55.5Z" fill="#3B88C3"/>
<path d="M34.5 7.5H30V3H27V7.5H22.5V10.5H27V15H30V10.5H34.5V7.5Z" fill="#DD2E44"/>
<path d="M40.5 16.5H16.5C15.7044 16.5 14.9413 16.8161 14.3787 17.3787C13.8161 17.9413 13.5 18.7044 13.5 19.5H43.5C43.5 18.7044 43.1839 17.9413 42.6213 17.3787C42.0587 16.8161 41.2956 16.5 40.5 16.5Z" fill="#808285"/>
</g>
</g>
<defs>
<clipPath id="clip0_211_2137">
<rect width="57" height="57" fill="white"/>
</clipPath>
</defs>
</svg>
