<svg width="57" height="57" viewBox="0 0 57 57" fill="none" xmlns="http://www.w3.org/2000/svg">
<path d="M19.031 35.9165C19.7976 35.1004 18.8643 35.0172 18.3144 35.0005H13.8146C12.3146 35.0005 11.8313 34.6008 11.9313 33.2186V23.5096C11.9313 22.3605 12.348 21.8443 13.5979 21.8443H18.281C18.6143 21.8443 19.0143 21.9275 19.231 21.5778C19.4476 21.2281 19.0977 20.945 18.8643 20.7118C17.2422 19.0687 15.6089 17.4366 13.9646 15.8157C13.8009 15.633 13.599 15.4886 13.3731 15.393C13.1472 15.2973 12.9029 15.2526 12.6577 15.2621C12.4126 15.2717 12.1725 15.3352 11.9548 15.4482C11.737 15.5611 11.5469 15.7207 11.398 15.9156C9.08144 18.2471 6.74821 20.5786 4.41498 22.8768C4.18061 23.0502 3.99018 23.2762 3.85897 23.5365C3.72775 23.7968 3.6594 24.0841 3.6594 24.3756C3.6594 24.667 3.72775 24.9544 3.85897 25.2147C3.99018 25.475 4.18061 25.7009 4.41498 25.8744C6.51489 28.1726 6.51489 28.7555 4.41498 31.0869C4.19431 31.2512 4.0151 31.4648 3.89164 31.7106C3.76818 31.9563 3.70389 32.2275 3.70389 32.5025C3.70389 32.7775 3.76818 33.0487 3.89164 33.2944C4.0151 33.5402 4.19431 33.7537 4.41498 33.918L11.398 40.8792C11.5861 41.0973 11.8188 41.2726 12.0804 41.3932C12.342 41.5139 12.6265 41.5771 12.9146 41.5787C13.2007 41.5309 13.4733 41.4231 13.7146 41.2622C15.4645 39.5303 17.3311 37.7983 19.031 35.9165ZM45.8798 40.7626C48.063 38.5311 50.2796 36.3328 52.5462 34.1012C52.7912 33.9165 52.99 33.6775 53.1269 33.4029C53.2638 33.1284 53.335 32.8259 53.335 32.5191C53.335 32.2124 53.2638 31.9099 53.1269 31.6354C52.99 31.3608 52.7912 31.1218 52.5462 30.9371C50.6296 28.8221 50.6462 28.0227 52.5462 25.8078C52.7617 25.6346 52.9357 25.4152 53.0552 25.1659C53.1747 24.9166 53.2368 24.6437 53.2368 24.3673C53.2368 24.0908 53.1747 23.8179 53.0552 23.5686C52.9357 23.3193 52.7617 23.1 52.5462 22.9267L45.5631 15.9489C45.1825 15.5255 44.6617 15.2535 44.0965 15.1829C43.805 15.248 43.5281 15.3666 43.2799 15.5326C41.4466 17.2978 39.6134 19.0465 37.8635 20.8783C37.0968 21.6944 37.8635 21.8109 38.4968 21.8276H43.4966C44.7298 21.8276 45.1632 22.2772 45.1632 23.493V33.4351C45.1632 34.6674 44.6632 35.1004 43.4966 35.1004H38.8134C38.4301 35.1004 37.9301 34.9672 37.7135 35.4002C37.4968 35.8332 37.9635 36.0997 38.2301 36.3661C39.7301 37.8982 41.2633 39.3804 42.7466 40.9125C42.933 41.1588 43.1767 41.3559 43.4566 41.4868C43.7365 41.6177 44.0441 41.6784 44.3528 41.6636C44.6614 41.6489 44.9618 41.5591 45.2279 41.4021C45.494 41.2451 45.7178 41.0256 45.8798 40.7626ZM16.1145 42.6611C15.868 42.8445 15.6693 43.0844 15.535 43.3606C15.4008 43.6368 15.335 43.9412 15.3432 44.2482C15.3513 44.5551 15.4332 44.8556 15.582 45.1243C15.7307 45.393 15.9419 45.622 16.1978 45.792C18.431 47.9902 20.6476 50.1719 22.8642 52.4534C24.0141 53.6524 24.9641 53.5192 26.0973 52.4534C28.0473 50.5549 28.9639 50.5549 30.9138 52.4534C31.0962 52.7282 31.3439 52.9536 31.6347 53.1096C31.9255 53.2655 32.2504 53.3471 32.5804 53.3471C32.9104 53.3471 33.2353 53.2655 33.5261 53.1096C33.8169 52.9536 34.0645 52.7282 34.247 52.4534L40.9967 45.792C41.239 45.5867 41.4344 45.3318 41.5696 45.0444C41.7047 44.7571 41.7765 44.4441 41.78 44.1266C41.7183 43.8291 41.5995 43.5463 41.43 43.294C39.7634 41.512 37.9801 39.7135 36.1636 38.0148C35.3303 37.2321 35.2469 38.0148 35.2303 38.6643V43.3439C35.2303 44.5097 34.8803 45.0093 33.647 45.0093H23.4141C22.3142 45.0093 21.8309 44.6262 21.8642 43.4771V38.7975C21.8642 38.4311 22.0309 37.8816 21.4975 37.7817C21.2476 37.7817 20.8809 38.0481 20.6642 38.2813C19.0477 39.7135 17.5977 41.2123 16.1145 42.6611ZM35.1636 18.4469C35.1636 19.3629 35.5636 19.4795 36.1969 18.8633L41.1967 13.8672C41.3587 13.7034 41.4849 13.5077 41.5673 13.2926C41.6498 13.0775 41.6867 12.8477 41.6758 12.6176C41.6648 12.3875 41.6062 12.1623 41.5036 11.956C41.4011 11.7497 41.2568 11.5669 41.08 11.4192L33.9303 4.32477C33.7762 4.10823 33.5726 3.93167 33.3363 3.80983C33.1 3.688 32.8379 3.62442 32.572 3.62442C32.3062 3.62442 32.0441 3.688 31.8078 3.80983C31.5715 3.93167 31.3678 4.10823 31.2138 4.32477C28.7972 6.43976 28.2139 6.43976 25.814 4.32477C24.8807 3.49209 24.0141 3.32556 23.0808 4.32477C20.7142 6.68957 18.331 9.05436 15.9811 11.4358C15.7611 11.5893 15.5814 11.7936 15.4573 12.0313C15.3332 12.2691 15.2684 12.5333 15.2684 12.8014C15.2684 13.0695 15.3332 13.3337 15.4573 13.5715C15.5814 13.8092 15.7611 14.0135 15.9811 14.167L20.4309 18.4469C20.7142 18.73 20.9642 19.1797 21.4142 19.0298C21.8642 18.8799 21.7475 18.347 21.7475 17.964C21.8309 16.583 21.8309 15.1983 21.7475 13.8173C21.5975 12.1519 22.3142 11.6856 23.8474 11.7855C25.3807 11.8855 26.8473 11.7855 28.3639 11.7855H32.697C35.1636 11.7855 35.1636 11.7855 35.1636 14.3502V18.4469ZM13.8146 12.6515C14.5645 12.8181 14.2812 12.052 14.5145 11.7189C14.7582 11.3322 15.0312 10.9648 15.3312 10.6198C17.6477 8.27165 19.9643 5.92351 22.3142 3.62532C23.8141 2.17647 24.9641 2.22643 26.5307 3.62532C28.0972 5.02422 28.5806 5.29067 30.3805 3.62532C31.4638 2.62611 32.7304 1.95997 33.9303 3.0591C36.9502 5.66318 39.7692 8.4912 42.3633 11.5191C42.6466 11.8522 42.5133 12.7681 43.2966 12.435H43.3966C43.5984 12.2528 43.7525 12.024 43.8455 11.7685C43.9384 11.513 43.9674 11.2387 43.9299 10.9695C43.9372 10.3072 43.6861 9.66808 43.2299 9.18759L43.0299 8.9711C40.38 6.30654 37.7468 3.62532 35.0469 1.01072C34.804 0.69621 34.4922 0.441552 34.1354 0.266333C33.7786 0.0911133 33.3863 0 32.9887 0C32.5911 0 32.1988 0.0911133 31.842 0.266333C31.4852 0.441552 31.1734 0.69621 30.9305 1.01072C28.4472 3.22564 28.4472 3.22564 25.9307 1.01072C25.6895 0.696416 25.3791 0.441787 25.0237 0.266549C24.6682 0.0913117 24.2771 0.000165173 23.8808 0.000165173C23.4844 0.000165173 23.0933 0.0913117 22.7379 0.266549C22.3824 0.441787 22.0721 0.696416 21.8309 1.01072C19.131 3.62532 16.4978 6.30654 13.8479 8.9711C13.4683 9.28926 13.1869 9.70858 13.0364 10.1803C12.886 10.652 12.8726 11.1567 12.9979 11.6357C13.1979 12.002 13.3312 12.5516 13.8146 12.6515ZM11.4647 42.3281C11.2147 42.0949 10.8814 41.945 10.648 41.6952C8.26481 39.3471 5.86492 36.9989 3.53169 34.5842C3.23243 34.3278 2.99222 34.0097 2.82753 33.6519C2.66285 33.294 2.57758 32.9047 2.57758 32.5108C2.57758 32.1169 2.66285 31.7277 2.82753 31.3698C2.99222 31.0119 3.23243 30.6939 3.53169 30.4375C5.19828 28.4723 5.19828 28.3724 3.53169 26.4739C2.5484 25.4081 2.04842 24.0925 3.01504 23.0433C5.70929 19.8791 8.69444 16.9742 11.9313 14.3668C12.148 14.2169 12.5479 14.2336 12.5479 13.8839C12.5479 13.5342 12.1646 13.301 11.848 13.2011C11.2958 13.0092 10.6986 12.9876 10.134 13.139C9.56934 13.2905 9.06328 13.608 8.68146 14.0504C6.1649 16.6151 3.49836 19.1797 1.01513 21.7776C0.697854 22.0369 0.442192 22.3634 0.266632 22.7335C0.0910721 23.1036 0 23.508 0 23.9176C0 24.3272 0.0910721 24.7316 0.266632 25.1017C0.442192 25.4718 0.697854 25.7983 1.01513 26.0576C3.08171 28.3558 3.08171 28.4557 1.01513 30.8871C0.706627 31.1478 0.460187 31.4739 0.293765 31.8418C0.127342 32.2096 0.0451289 32.61 0.0531117 33.0136C0.0610945 33.4172 0.159073 33.814 0.33991 34.175C0.520747 34.536 0.77989 34.8522 1.09846 35.1004C3.66501 37.6984 6.24823 40.2464 8.81478 42.8277C9.3892 43.4685 10.1895 43.8624 11.048 43.9268C11.5313 43.7769 12.348 43.7769 12.5313 43.0941C12.7146 42.4113 11.8313 42.6278 11.4647 42.3281ZM56.0127 25.941C57.0793 24.742 57.4459 23.443 56.2793 22.2273C53.4794 19.3129 50.6296 16.4485 47.6964 13.6674C47.4487 13.42 47.1489 13.231 46.8188 13.1143C46.4886 12.9975 46.1366 12.956 45.7883 12.9927C45.4401 13.0294 45.1045 13.1435 44.806 13.3265C44.5075 13.5095 44.2537 13.7568 44.0632 14.0504C44.9605 14.2508 45.7851 14.6945 46.4464 15.3327C48.6797 17.5976 50.9462 19.8125 53.1128 22.0941C53.451 22.3705 53.7235 22.7186 53.9107 23.1132C54.0978 23.5078 54.1949 23.9389 54.1949 24.3756C54.1949 24.8122 54.0978 25.2434 53.9107 25.638C53.7235 26.0325 53.451 26.3806 53.1128 26.6571C51.5795 28.4057 51.5795 28.6389 53.1128 30.3875C53.4372 30.6602 53.6962 31.0022 53.8708 31.3882C54.0454 31.7743 54.131 32.1945 54.1214 32.618C54.1118 33.0416 54.0072 33.4575 53.8153 33.8353C53.6235 34.213 53.3492 34.5429 53.0128 34.8007C51.8462 35.9997 50.7129 37.2321 49.4463 38.3312C47.7797 39.8134 46.6297 41.8618 44.4465 42.6778C43.7965 42.9276 44.2799 43.3439 44.6298 43.5604C45.1476 43.8876 45.7698 44.0077 46.3722 43.8965C46.9747 43.7854 47.513 43.4513 47.8797 42.9609C50.5462 40.2963 53.2295 37.6651 55.846 34.9839C56.1633 34.7466 56.4209 34.4387 56.5984 34.0845C56.7758 33.7304 56.8682 33.3398 56.8682 32.9438C56.8682 32.5478 56.7758 32.1572 56.5984 31.8031C56.4209 31.449 56.1633 31.141 55.846 30.9038C53.7961 28.439 53.7794 28.439 56.0127 25.941ZM43.2799 44.4264C43.0799 44.2432 42.8799 44.4264 42.7466 44.6096C40.68 47.9403 37.4302 50.3217 34.7636 53.1695C33.2803 54.8348 32.0304 54.7016 30.3971 53.1695C28.7639 51.6374 28.4639 51.5041 26.6973 53.1695C24.9307 54.8348 23.7141 54.7516 22.0475 53.1695C19.8254 51.0156 17.6588 48.8507 15.5478 46.6746C15.205 46.2905 14.8877 45.8844 14.5979 45.4589C14.3145 45.1092 14.5979 44.2099 13.7646 44.4097C12.9313 44.6096 13.0313 45.2757 12.9813 45.8586C12.9718 46.2919 13.0597 46.7218 13.2385 47.1167C13.4173 47.5115 13.6825 47.8613 14.0146 48.1401C16.6311 50.7381 19.231 53.3693 21.8642 55.9673C22.1037 56.2814 22.4125 56.536 22.7666 56.7113C23.1208 56.8865 23.5106 56.9777 23.9058 56.9777C24.3009 56.9777 24.6908 56.8865 25.0449 56.7113C25.399 56.536 25.7079 56.2814 25.9473 55.9673C28.2639 53.8689 28.6972 53.8689 30.9471 55.9673C31.1825 56.2874 31.4899 56.5477 31.8446 56.7271C32.1992 56.9065 32.5912 57 32.9887 57C33.3862 57 33.7782 56.9065 34.1328 56.7271C34.4875 56.5477 34.7949 56.2874 35.0303 55.9673C37.6968 53.336 40.33 50.6715 42.9966 48.0236C43.285 47.7802 43.5165 47.4767 43.6749 47.1343C43.8333 46.7919 43.9146 46.419 43.9132 46.0418C43.9384 45.7421 43.8944 45.4405 43.7846 45.1605C43.6748 44.8804 43.5021 44.6293 43.2799 44.4264Z" fill="black"/>
</svg>
