<svg width="94" height="94" viewBox="0 0 94 94" fill="none" xmlns="http://www.w3.org/2000/svg">
<path d="M47 94C72.9574 94 94 72.9574 94 47C94 21.0426 72.9574 0 47 0C21.0426 0 0 21.0426 0 47C0 72.9574 21.0426 94 47 94Z" fill="#58B0E0"/>
<path fill-rule="evenodd" clip-rule="evenodd" d="M35.3716 58.8335L59.5667 59.0175V78.6663L35.3716 78.4822V58.8335Z" fill="#F9DCA4"/>
<path fill-rule="evenodd" clip-rule="evenodd" d="M66.8814 89.5967C60.7312 92.461 54.0349 93.9629 47.2506 93.9997C40.4663 94.0364 33.754 92.6071 27.5732 89.8096V73.644H66.8799L66.8814 89.5967Z" fill="#E6E6E6"/>
<path fill-rule="evenodd" clip-rule="evenodd" d="M50.8072 93.8479C49.5518 93.9482 48.2828 93.9989 47 94C46.0316 94 45.0709 93.9711 44.1177 93.9133L45.6843 80.2422H49.35L50.8072 93.8479Z" fill="#E9573E"/>
<path fill-rule="evenodd" clip-rule="evenodd" d="M39.0254 93.2879C33.8433 92.3228 28.8389 90.5727 24.1847 88.0981C19.7143 85.6105 15.678 82.4126 12.2339 78.6297L14.1869 73.9145L35.3673 64.4658C35.3673 72.3935 37.9698 84.9709 39.0254 93.2879Z" fill="#677079"/>
<path opacity="0.11" fill-rule="evenodd" clip-rule="evenodd" d="M59.5714 58.954V63.8685C52.3739 72.2753 38.6222 71.0858 35.5391 58.6787L59.5714 58.954Z" fill="black"/>
<path fill-rule="evenodd" clip-rule="evenodd" d="M47.3481 12.8252C79.7173 12.8252 67.1018 66.466 47.3481 66.466C28.6896 66.466 14.9789 12.8252 47.3481 12.8252Z" fill="#FFE8BE"/>
<path fill-rule="evenodd" clip-rule="evenodd" d="M27.9336 36.5748C23.264 38.6114 27.2339 48.2654 30.1726 48.2229C28.9536 44.4456 28.2017 40.5348 27.9336 36.5748ZM67.1383 36.5732C71.8079 38.6099 67.838 48.2654 64.9009 48.2213C66.1188 44.4444 66.8702 40.5326 67.1383 36.5732Z" fill="#F9DCA4"/>
<path fill-rule="evenodd" clip-rule="evenodd" d="M33.358 21.7934C28.2869 27.0532 30.0711 41.6125 30.0711 41.6125L28.474 40.8596C18.5051 2.23441 76.5904 2.23289 66.5653 40.8596L64.9682 41.6125C64.9682 41.6125 66.7539 27.0532 61.6828 21.7934C55.4176 27.8699 39.5882 27.838 33.358 21.7934Z" fill="#464449"/>
<path fill-rule="evenodd" clip-rule="evenodd" d="M55.9238 93.1526C66.202 91.1676 75.5218 85.8043 82.402 77.9149L80.7441 73.913L59.5652 64.4644C59.5652 72.392 56.9794 84.8356 55.9238 93.1526Z" fill="#677079"/>
<path fill-rule="evenodd" clip-rule="evenodd" d="M59.567 63.853L47.5112 73.6865L57.509 82.6804C57.509 82.6804 60.1739 67.9203 59.567 63.853Z" fill="white"/>
<path fill-rule="evenodd" clip-rule="evenodd" d="M35.3688 63.853L47.5203 73.6865L37.413 82.6804C37.413 82.6804 34.7573 67.9203 35.3688 63.853Z" fill="white"/>
<path fill-rule="evenodd" clip-rule="evenodd" d="M42.7549 77.9181L47.5264 73.6318L52.2979 77.9181L47.5264 82.2029L42.7549 77.9181Z" fill="#E9573E"/>
<path fill-rule="evenodd" clip-rule="evenodd" d="M39.1924 93.3506C37.2502 93.0256 35.3304 92.5786 33.4444 92.0121C33.3853 91.9665 33.3275 91.9194 33.271 91.8706L27.8942 82.1512L34.8012 77.1926H27.5732L29.1201 66.772L35.3716 62.8188C35.6423 74.0289 38.0471 86.6322 39.1924 93.3506ZM55.7383 93.1878C56.6326 93.0388 57.5179 92.8319 58.3955 92.6038C59.4321 92.3294 60.4636 92.0358 61.4893 91.7231L61.6931 91.6577L67.0335 82.0523L60.1264 77.1211H67.3544L65.8075 66.7522L59.5561 62.8188C59.2853 73.9711 56.8821 86.5029 55.7383 93.1878Z" fill="#434955"/>
</svg>
