<svg width="23" height="25" viewBox="0 0 23 25" fill="none" xmlns="http://www.w3.org/2000/svg">
<path d="M19.1667 20C18.8278 20 18.5028 20.1317 18.2631 20.3661C18.0235 20.6005 17.8889 20.9185 17.8889 21.25C17.8889 21.5815 17.7543 21.8995 17.5146 22.1339C17.275 22.3683 16.95 22.5 16.6111 22.5H3.83333C3.49445 22.5 3.16944 22.3683 2.92981 22.1339C2.69018 21.8995 2.55556 21.5815 2.55556 21.25V3.75C2.55556 3.41848 2.69018 3.10054 2.92981 2.86612C3.16944 2.6317 3.49445 2.5 3.83333 2.5H10.2222V6.25C10.2222 7.24456 10.6261 8.19839 11.345 8.90165C12.0639 9.60491 13.0389 10 14.0556 10H17.8889V11.25C17.8889 11.5815 18.0235 11.8995 18.2631 12.1339C18.5028 12.3683 18.8278 12.5 19.1667 12.5C19.5056 12.5 19.8306 12.3683 20.0702 12.1339C20.3098 11.8995 20.4444 11.5815 20.4444 11.25V8.75C20.4444 8.75 20.4444 8.75 20.4444 8.675C20.4311 8.56017 20.4054 8.44704 20.3678 8.3375C20.3732 8.30019 20.3732 8.26231 20.3678 8.225C20.3063 8.09647 20.2244 7.97833 20.125 7.875L12.4583 0.375C12.3527 0.27777 12.2319 0.197601 12.1006 0.1375H11.9728C11.8522 0.0742888 11.7232 0.028001 11.5894 0H3.83333C2.81667 0 1.84165 0.395088 1.12276 1.09835C0.403868 1.80161 0 2.75544 0 3.75V21.25C0 22.2446 0.403868 23.1984 1.12276 23.9017C1.84165 24.6049 2.81667 25 3.83333 25H16.6111C17.6278 25 18.6028 24.6049 19.3217 23.9017C20.0406 23.1984 20.4444 22.2446 20.4444 21.25C20.4444 20.9185 20.3098 20.6005 20.0702 20.3661C19.8306 20.1317 19.5056 20 19.1667 20ZM12.7778 4.2625L16.0872 7.5H14.0556C13.7167 7.5 13.3917 7.3683 13.152 7.13388C12.9124 6.89946 12.7778 6.58152 12.7778 6.25V4.2625ZM21.7222 15H18.5278C18.3596 14.999 18.1929 15.0306 18.0372 15.0928C17.8815 15.155 17.74 15.2466 17.6206 15.3625L16.0361 16.925L12.4583 12.925C12.3432 12.796 12.2023 12.6915 12.0442 12.618C11.8862 12.5445 11.7143 12.5036 11.5394 12.4977C11.3645 12.4919 11.1902 12.5212 11.0274 12.584C10.8645 12.6467 10.7166 12.7415 10.5928 12.8625L8.42056 15H6.38889C6.05 15 5.72499 15.1317 5.48536 15.3661C5.24573 15.6005 5.11111 15.9185 5.11111 16.25C5.11111 16.5815 5.24573 16.8995 5.48536 17.1339C5.72499 17.3683 6.05 17.5 6.38889 17.5H8.94444C9.11261 17.501 9.27931 17.4694 9.43499 17.4072C9.59067 17.345 9.73227 17.2534 9.85167 17.1375L11.5 15.575L15.0778 19.575C15.1932 19.7037 15.3344 19.8078 15.4927 19.8809C15.6509 19.954 15.8229 19.9946 15.9978 20C16.1659 20.001 16.3326 19.9694 16.4883 19.9072C16.644 19.845 16.7856 19.7534 16.905 19.6375L19.0517 17.5H21.7222C22.0611 17.5 22.3861 17.3683 22.6257 17.1339C22.8654 16.8995 23 16.5815 23 16.25C23 15.9185 22.8654 15.6005 22.6257 15.3661C22.3861 15.1317 22.0611 15 21.7222 15Z" fill="#FF8A00"/>
</svg>
