<svg width="25" height="25" viewBox="0 0 25 25" fill="none" xmlns="http://www.w3.org/2000/svg">
<path d="M10 18.75H11.25V20C11.25 20.3315 11.3817 20.6495 11.6161 20.8839C11.8505 21.1183 12.1685 21.25 12.5 21.25C12.8315 21.25 13.1495 21.1183 13.3839 20.8839C13.6183 20.6495 13.75 20.3315 13.75 20V18.75H15C15.3315 18.75 15.6495 18.6183 15.8839 18.3839C16.1183 18.1495 16.25 17.8315 16.25 17.5C16.25 17.1685 16.1183 16.8505 15.8839 16.6161C15.6495 16.3817 15.3315 16.25 15 16.25H13.75V15C13.75 14.6685 13.6183 14.3505 13.3839 14.1161C13.1495 13.8817 12.8315 13.75 12.5 13.75C12.1685 13.75 11.8505 13.8817 11.6161 14.1161C11.3817 14.3505 11.25 14.6685 11.25 15V16.25H10C9.66848 16.25 9.35054 16.3817 9.11612 16.6161C8.8817 16.8505 8.75 17.1685 8.75 17.5C8.75 17.8315 8.8817 18.1495 9.11612 18.3839C9.35054 18.6183 9.66848 18.75 10 18.75ZM21.25 5H18.75V3.75C18.75 2.75544 18.3549 1.80161 17.6517 1.09835C16.9484 0.395088 15.9946 0 15 0H10C9.00544 0 8.05161 0.395088 7.34835 1.09835C6.64509 1.80161 6.25 2.75544 6.25 3.75V5H3.75C2.75544 5 1.80161 5.39509 1.09835 6.09835C0.395088 6.80161 0 7.75544 0 8.75V21.25C0 22.2446 0.395088 23.1984 1.09835 23.9017C1.80161 24.6049 2.75544 25 3.75 25H21.25C22.2446 25 23.1984 24.6049 23.9017 23.9017C24.6049 23.1984 25 22.2446 25 21.25V8.75C25 7.75544 24.6049 6.80161 23.9017 6.09835C23.1984 5.39509 22.2446 5 21.25 5ZM8.75 3.75C8.75 3.41848 8.8817 3.10054 9.11612 2.86612C9.35054 2.6317 9.66848 2.5 10 2.5H15C15.3315 2.5 15.6495 2.6317 15.8839 2.86612C16.1183 3.10054 16.25 3.41848 16.25 3.75V5H8.75V3.75ZM22.5 21.25C22.5 21.5815 22.3683 21.8995 22.1339 22.1339C21.8995 22.3683 21.5815 22.5 21.25 22.5H3.75C3.41848 22.5 3.10054 22.3683 2.86612 22.1339C2.6317 21.8995 2.5 21.5815 2.5 21.25V12.5H22.5V21.25ZM22.5 10H2.5V8.75C2.5 8.41848 2.6317 8.10054 2.86612 7.86612C3.10054 7.6317 3.41848 7.5 3.75 7.5H21.25C21.5815 7.5 21.8995 7.6317 22.1339 7.86612C22.3683 8.10054 22.5 8.41848 22.5 8.75V10Z" fill="#FF8A00"/>
</svg>
