<svg width="97" height="96" viewBox="0 0 97 96" fill="none" xmlns="http://www.w3.org/2000/svg">
<path d="M77.6063 57.662C74.7417 57.6807 71.9169 58.3264 69.3349 59.5528C66.7529 60.7791 64.4778 62.5556 62.6731 64.7545L37.9462 53.4927C39.1088 49.974 39.1088 46.181 37.9462 42.6622L62.6731 31.4005C65.59 34.8795 69.6565 37.2282 74.1549 38.0322C78.6534 38.8361 83.2945 38.0436 87.2593 35.7945C91.224 33.5454 94.2576 29.9842 95.8245 25.7396C97.3914 21.4949 97.391 16.8396 95.8233 12.5952C94.2556 8.35084 91.2214 4.79026 87.2562 2.54185C83.291 0.293451 78.6497 -0.498229 74.1515 0.306535C69.6532 1.1113 65.5872 3.46077 62.6709 6.94031C59.7546 10.4198 58.1756 14.8058 58.2126 19.324C58.2272 20.4657 58.3407 21.604 58.552 22.7265L32.9523 34.3717C30.223 31.7339 26.7669 29.9509 23.0169 29.246C19.267 28.5411 15.3899 28.9457 11.8716 30.4091C8.35325 31.8725 5.35004 34.3296 3.23825 37.4725C1.12646 40.6155 0 44.3045 0 48.0775C0 51.8504 1.12646 55.5395 3.23825 58.6824C5.35004 61.8254 8.35325 64.2825 11.8716 65.7459C15.3899 67.2093 19.267 67.6139 23.0169 66.909C26.7669 66.2041 30.223 64.4211 32.9523 61.7833L58.552 73.4285C58.3407 74.551 58.2272 75.6893 58.2126 76.831C58.2126 80.6223 59.35 84.3284 61.481 87.4807C63.612 90.633 66.6409 93.09 70.1846 94.5408C73.7284 95.9917 77.6278 96.3713 81.3898 95.6317C85.1518 94.892 88.6074 93.0663 91.3197 90.3855C94.032 87.7047 95.879 84.2891 96.6273 80.5707C97.3757 76.8522 96.9916 72.998 95.5237 69.4953C94.0559 65.9927 91.5701 62.9989 88.3809 60.8925C85.1916 58.7862 81.442 57.662 77.6063 57.662ZM77.6063 9.73949C79.5241 9.73949 81.3989 10.3016 82.9936 11.3548C84.5882 12.4079 85.8311 13.9048 86.565 15.6562C87.2989 17.4075 87.491 19.3346 87.1168 21.1938C86.7427 23.053 85.8191 24.7608 84.463 26.1013C83.1069 27.4417 81.3791 28.3545 79.4981 28.7243C77.6171 29.0941 75.6673 28.9043 73.8955 28.1789C72.1236 27.4535 70.6092 26.225 69.5437 24.6488C68.4782 23.0727 67.9094 21.2196 67.9094 19.324C67.9094 16.782 68.9311 14.3442 70.7496 12.5467C72.5681 10.7493 75.0345 9.73949 77.6063 9.73949ZM19.4252 57.662C17.5073 57.662 15.6326 57.0999 14.0379 56.0467C12.4433 54.9936 11.2004 53.4967 10.4665 51.7453C9.73255 49.994 9.54052 48.0669 9.91467 46.2076C10.2888 44.3484 11.2124 42.6406 12.5685 41.3002C13.9246 39.9598 15.6524 39.047 17.5334 38.6772C19.4144 38.3073 21.3642 38.4971 23.136 39.2226C24.9079 39.948 26.4223 41.1765 27.4878 42.7526C28.5533 44.3288 29.122 46.1819 29.122 48.0775C29.122 50.6195 28.1004 53.0573 26.2819 54.8548C24.4634 56.6522 21.997 57.662 19.4252 57.662ZM77.6063 86.4155C75.6884 86.4155 73.8136 85.8534 72.219 84.8002C70.6244 83.7471 69.3815 82.2502 68.6476 80.4988C67.9136 78.7475 67.7216 76.8204 68.0958 74.9612C68.4699 73.1019 69.3935 71.3941 70.7496 70.0537C72.1057 68.7133 73.8335 67.8005 75.7145 67.4307C77.5955 67.0608 79.5452 67.2506 81.3171 67.9761C83.089 68.7015 84.6034 69.93 85.6689 71.5061C86.7344 73.0823 87.3031 74.9354 87.3031 76.831C87.3031 79.373 86.2815 81.8108 84.463 83.6083C82.6445 85.4057 80.1781 86.4155 77.6063 86.4155Z" fill="white"/>
</svg>
