<svg width="26" height="26" viewBox="0 0 26 26" fill="none" xmlns="http://www.w3.org/2000/svg">
<path d="M7.94444 0H3.61111C2.65338 0 1.73488 0.380455 1.05767 1.05767C0.380455 1.73488 0 2.65338 0 3.61111C0 4.56884 0.380455 5.48734 1.05767 6.16455C1.73488 6.84177 2.65338 7.22222 3.61111 7.22222H7.94444C8.90217 7.22222 9.82067 6.84177 10.4979 6.16455C11.1751 5.48734 11.5556 4.56884 11.5556 3.61111C11.5556 2.65338 11.1751 1.73488 10.4979 1.05767C9.82067 0.380455 8.90217 0 7.94444 0ZM7.94444 5.77778H3.61111C3.03648 5.77778 2.48537 5.5495 2.07905 5.14318C1.67272 4.73685 1.44444 4.18575 1.44444 3.61111C1.44444 3.03648 1.67272 2.48537 2.07905 2.07905C2.48537 1.67272 3.03648 1.44444 3.61111 1.44444H7.94444C8.51908 1.44444 9.07018 1.67272 9.47651 2.07905C9.88284 2.48537 10.1111 3.03648 10.1111 3.61111C10.1111 4.18575 9.88284 4.73685 9.47651 5.14318C9.07018 5.5495 8.51908 5.77778 7.94444 5.77778ZM7.94444 10.1111H3.61111C2.65338 10.1111 1.73488 10.4916 1.05767 11.1688C0.380455 11.846 0 12.7645 0 13.7222V22.3889C0 23.3466 0.380455 24.2651 1.05767 24.9423C1.73488 25.6195 2.65338 26 3.61111 26H7.94444C8.90217 26 9.82067 25.6195 10.4979 24.9423C11.1751 24.2651 11.5556 23.3466 11.5556 22.3889V13.7222C11.5556 12.7645 11.1751 11.846 10.4979 11.1688C9.82067 10.4916 8.90217 10.1111 7.94444 10.1111ZM10.1111 22.3889C10.1111 22.9635 9.88284 23.5146 9.47651 23.921C9.07018 24.3273 8.51908 24.5556 7.94444 24.5556H3.61111C3.03648 24.5556 2.48537 24.3273 2.07905 23.921C1.67272 23.5146 1.44444 22.9635 1.44444 22.3889V13.7222C1.44444 13.1476 1.67272 12.5965 2.07905 12.1902C2.48537 11.7838 3.03648 11.5556 3.61111 11.5556H7.94444C8.51908 11.5556 9.07018 11.7838 9.47651 12.1902C9.88284 12.5965 10.1111 13.1476 10.1111 13.7222V22.3889ZM22.3889 18.7778H18.0556C17.0978 18.7778 16.1793 19.1582 15.5021 19.8354C14.8249 20.5127 14.4444 21.4312 14.4444 22.3889C14.4444 23.3466 14.8249 24.2651 15.5021 24.9423C16.1793 25.6195 17.0978 26 18.0556 26H22.3889C23.3466 26 24.2651 25.6195 24.9423 24.9423C25.6195 24.2651 26 23.3466 26 22.3889C26 21.4312 25.6195 20.5127 24.9423 19.8354C24.2651 19.1582 23.3466 18.7778 22.3889 18.7778ZM22.3889 24.5556H18.0556C17.4809 24.5556 16.9298 24.3273 16.5235 23.921C16.1172 23.5146 15.8889 22.9635 15.8889 22.3889C15.8889 21.8143 16.1172 21.2632 16.5235 20.8568C16.9298 20.4505 17.4809 20.2222 18.0556 20.2222H22.3889C22.9635 20.2222 23.5146 20.4505 23.921 20.8568C24.3273 21.2632 24.5556 21.8143 24.5556 22.3889C24.5556 22.9635 24.3273 23.5146 23.921 23.921C23.5146 24.3273 22.9635 24.5556 22.3889 24.5556ZM22.3889 0H18.0556C17.0978 0 16.1793 0.380455 15.5021 1.05767C14.8249 1.73488 14.4444 2.65338 14.4444 3.61111V12.2778C14.4444 13.2355 14.8249 14.154 15.5021 14.8312C16.1793 15.5084 17.0978 15.8889 18.0556 15.8889H22.3889C23.3466 15.8889 24.2651 15.5084 24.9423 14.8312C25.6195 14.154 26 13.2355 26 12.2778V3.61111C26 2.65338 25.6195 1.73488 24.9423 1.05767C24.2651 0.380455 23.3466 0 22.3889 0ZM24.5556 12.2778C24.5556 12.8524 24.3273 13.4035 23.921 13.8098C23.5146 14.2162 22.9635 14.4444 22.3889 14.4444H18.0556C17.4809 14.4444 16.9298 14.2162 16.5235 13.8098C16.1172 13.4035 15.8889 12.8524 15.8889 12.2778V3.61111C15.8889 3.03648 16.1172 2.48537 16.5235 2.07905C16.9298 1.67272 17.4809 1.44444 18.0556 1.44444H22.3889C22.9635 1.44444 23.5146 1.67272 23.921 2.07905C24.3273 2.48537 24.5556 3.03648 24.5556 3.61111V12.2778Z" fill="white"/>
</svg>
