<svg width="494" height="482" viewBox="0 0 494 482" fill="none" xmlns="http://www.w3.org/2000/svg">
<path d="M491.032 192.511C483.503 136.188 440.896 89.048 406.482 59.4195C379.281 36.0053 352.731 20.925 321.084 11.9709C298.178 4.58361 273.751 0.579834 248.383 0.579834C227.235 0.579834 206.737 3.36954 187.233 8.56975C175.252 10.6539 164.821 13.3378 154.039 17.6738C136.071 24.9023 120.699 32.4836 107.044 40.8557C71.3683 62.7236 43.3005 93.6133 25.867 130.182C-0.868548 186.265 -7.22673 248.764 8.41581 301.654C21.5733 346.139 53.5995 382.97 78.1529 406.031C85.3875 412.831 93.3779 420.045 102.165 426.109C113.876 435.842 129.377 446.71 148.269 456.246C181.487 473.008 217.307 481.58 253.45 481.58C264.887 481.58 276.357 480.724 287.785 478.993C320.564 474.037 357.319 458.283 388.622 435.769C417.672 414.877 437.511 391.269 444.131 370.05C445.272 368.378 446.392 366.69 447.492 364.982C486.53 322.143 500.793 265.496 491.032 192.511ZM11.7478 237.117C11.7478 295.225 32.7251 348.432 67.5069 389.611C46.1561 367.149 22.982 336.303 12.386 300.481C-2.97128 248.555 3.30456 187.132 29.6049 131.958C46.6943 96.1119 74.218 65.8279 109.209 44.3774C113.479 41.7582 117.946 39.2242 122.596 36.7461C56.0081 78.6035 11.7478 152.688 11.7478 237.117ZM287.158 474.836C232.805 483.056 185.957 470.268 150.546 452.545C180.363 466.1 213.489 473.658 248.386 473.658C322.031 473.658 387.816 440.022 431.217 387.294C406.105 426.353 343.05 466.385 287.158 474.836ZM461.682 339.681C476.642 308.653 485.024 273.863 485.024 237.117C485.024 186.309 468.996 139.245 441.719 100.695C463.449 126.496 482.18 158.006 486.865 193.067C494.82 252.58 486.562 300.978 461.682 339.681Z" fill="#FF8A00"/>
</svg>
