<svg width="23" height="27" viewBox="0 0 23 27" fill="none" xmlns="http://www.w3.org/2000/svg">
<path d="M21.9818 5.72545C22.2613 6.0067 22.5009 6.38839 22.7005 6.87054C22.9002 7.35268 23 7.79464 23 8.19643V25.5536C23 25.9554 22.8602 26.2969 22.5807 26.5781C22.3012 26.8594 21.9618 27 21.5625 27H1.4375C1.03819 27 0.698785 26.8594 0.419271 26.5781C0.139757 26.2969 0 25.9554 0 25.5536V1.44643C0 1.04464 0.139757 0.703125 0.419271 0.421875C0.698785 0.140625 1.03819 0 1.4375 0H14.8542C15.2535 0 15.6927 0.100446 16.1719 0.301339C16.651 0.502232 17.0304 0.743304 17.3099 1.02455L21.9818 5.72545ZM15.3333 2.04911V7.71429H20.9635C20.8637 7.42299 20.7539 7.21708 20.6341 7.09654L15.9473 2.38058C15.8275 2.26004 15.6228 2.14955 15.3333 2.04911ZM21.0833 25.0714V9.64286H14.8542C14.4549 9.64286 14.1155 9.50223 13.8359 9.22098C13.5564 8.93973 13.4167 8.59821 13.4167 8.19643V1.92857H1.91667V25.0714H21.0833ZM5.75 12.0536C5.75 11.9129 5.79492 11.7974 5.88477 11.707C5.97461 11.6166 6.08941 11.5714 6.22917 11.5714H16.7708C16.9106 11.5714 17.0254 11.6166 17.1152 11.707C17.2051 11.7974 17.25 11.9129 17.25 12.0536V13.0179C17.25 13.1585 17.2051 13.274 17.1152 13.3644C17.0254 13.4548 16.9106 13.5 16.7708 13.5H6.22917C6.08941 13.5 5.97461 13.4548 5.88477 13.3644C5.79492 13.274 5.75 13.1585 5.75 13.0179V12.0536ZM16.7708 15.4286C16.9106 15.4286 17.0254 15.4738 17.1152 15.5642C17.2051 15.6546 17.25 15.7701 17.25 15.9107V16.875C17.25 17.0156 17.2051 17.1311 17.1152 17.2215C17.0254 17.3119 16.9106 17.3571 16.7708 17.3571H6.22917C6.08941 17.3571 5.97461 17.3119 5.88477 17.2215C5.79492 17.1311 5.75 17.0156 5.75 16.875V15.9107C5.75 15.7701 5.79492 15.6546 5.88477 15.5642C5.97461 15.4738 6.08941 15.4286 6.22917 15.4286H16.7708ZM16.7708 19.2857C16.9106 19.2857 17.0254 19.3309 17.1152 19.4213C17.2051 19.5117 17.25 19.6272 17.25 19.7679V20.7321C17.25 20.8728 17.2051 20.9883 17.1152 21.0787C17.0254 21.1691 16.9106 21.2143 16.7708 21.2143H6.22917C6.08941 21.2143 5.97461 21.1691 5.88477 21.0787C5.79492 20.9883 5.75 20.8728 5.75 20.7321V19.7679C5.75 19.6272 5.79492 19.5117 5.88477 19.4213C5.97461 19.3309 6.08941 19.2857 6.22917 19.2857H16.7708Z" fill="#909090"/>
</svg>
