<svg width="27" height="27" viewBox="0 0 27 27" fill="none" xmlns="http://www.w3.org/2000/svg">
<path d="M22.629 27H4.37171C1.96108 27 0 25.0385 0 22.6271V4.3729C0 1.96147 1.96108 0 4.37171 0H22.629C25.0389 0 27 1.96147 27 4.3729V22.6278C27 25.0392 25.0389 27 22.629 27ZM10.8983 4.15385C8.32048 4.15385 6.23077 6.23182 6.23077 8.79515C6.23077 11.3585 8.32048 13.4364 10.8983 13.4364H16.794C19.3718 13.4364 21.4615 11.3585 21.4615 8.79515C21.4615 6.23182 19.3718 4.15385 16.794 4.15385H10.8983ZM16.5949 11.9945C14.828 11.9945 13.3955 10.5721 13.3955 8.81763C13.3955 7.06311 14.828 5.64089 16.5949 5.64089C18.3619 5.64089 19.7943 7.06311 19.7943 8.81763C19.7943 10.5721 18.3619 11.9945 16.5949 11.9945ZM10.8983 15.5156H16.794C18.8291 15.5156 20.4789 17.1561 20.4789 19.1798C20.4789 21.2034 18.8291 22.844 16.794 22.844H10.8983C8.86317 22.844 7.21345 21.2034 7.21345 19.1798C7.21345 17.1561 8.86317 15.5156 10.8983 15.5156ZM10.8983 14.5385C8.32048 14.5385 6.23077 16.6164 6.23077 19.1798C6.23077 21.7431 8.32048 23.8211 10.8983 23.8211H16.794C19.3718 23.8211 21.4615 21.7431 21.4615 19.1798C21.4615 16.6164 19.3718 14.5385 16.794 14.5385H10.8983ZM11.0769 21.9071C12.6063 21.9071 13.8462 20.6761 13.8462 19.1575C13.8462 17.6388 12.6063 16.4077 11.0769 16.4077C9.54752 16.4077 8.30769 17.6388 8.30769 19.1575C8.30769 20.6761 9.54752 21.9071 11.0769 21.9071Z" fill="#909090"/>
</svg>
